<svg width="157" height="155" viewBox="0 0 157 155" fill="none" xmlns="http://www.w3.org/2000/svg">
<path d="M21.9752 84L8.73713 97.7073C3.98025 102.632 1.60181 105.095 0.778788 107.18C-1.09668 111.933 0.508322 117.204 4.59182 119.704C6.38388 120.801 9.61617 121.143 16.0807 121.827C19.7305 122.213 21.5558 122.406 23.0842 122.992C26.5063 124.304 29.1683 127.06 30.4351 130.603C31.0009 132.185 31.1874 134.075 31.5602 137.854C32.2205 144.548 32.5507 147.895 33.6103 149.75C36.0247 153.978 41.116 155.64 45.7058 153.698C47.72 152.846 50.0985 150.383 54.8553 145.458L76.715 122.824C52.9575 119.209 32.8702 104.427 21.9752 84Z" fill="#ED5F40"/>
<path d="M134.74 84L147.978 97.7073C152.735 102.632 155.113 105.095 155.936 107.18C157.812 111.933 156.207 117.204 152.123 119.704C150.331 120.801 147.099 121.143 140.634 121.827C136.984 122.213 135.159 122.406 133.631 122.992C130.209 124.304 127.547 127.06 126.28 130.603C125.714 132.185 125.527 134.075 125.155 137.854C124.494 144.548 124.164 147.895 123.105 149.75C120.69 153.978 115.599 155.64 111.009 153.698C108.995 152.846 106.616 150.383 101.859 145.458L79.9999 122.824C103.757 119.209 123.845 104.427 134.74 84Z" fill="#ED5F40"/>
<rect x="46.9502" y="32.0576" width="65.7889" height="68.1668" fill="#FAEFC0"/>
<path fill-rule="evenodd" clip-rule="evenodd" d="M77.0705 123.299C111.119 123.299 138.72 95.6978 138.72 61.6496C138.72 27.6015 111.119 0 77.0705 0C43.0224 0 15.4209 27.6015 15.4209 61.6496C15.4209 95.6978 43.0224 123.299 77.0705 123.299ZM77.0705 35.2283C74.5684 35.2283 72.8951 38.2301 69.5484 44.2337L68.6826 45.7869C67.7323 47.4929 67.2568 48.346 66.5152 48.9087C65.7736 49.4716 64.8507 49.6805 63.0038 50.0983L61.3225 50.4788C54.8234 51.9492 51.5741 52.6844 50.801 55.1704C50.0279 57.6564 52.2431 60.2468 56.6735 65.4277L57.8198 66.768C59.0788 68.2402 59.7082 68.9763 59.9918 69.887C60.2745 70.7975 60.1794 71.7795 59.9892 73.7444L59.8157 75.5322C59.146 82.4449 58.8111 85.9008 60.8346 87.4376C62.8594 88.9736 65.9013 87.5732 71.9862 84.7717L73.56 84.0469C75.2897 83.2507 76.1537 82.8527 77.0705 82.8527C77.9873 82.8527 78.8513 83.2507 80.581 84.0469L82.1548 84.7717C88.2396 87.5732 91.2816 88.9736 93.3064 87.4376C95.3302 85.9008 94.9947 82.4449 94.3253 75.5322L94.1518 73.7444C93.9616 71.7795 93.8665 70.7975 94.1492 69.887C94.4328 68.9763 95.0625 68.2402 96.321 66.7681L97.4677 65.4277C101.898 60.2468 104.114 57.6564 103.34 55.1704C102.567 52.6844 99.3172 51.9492 92.8184 50.4788L91.1372 50.0983C89.2903 49.6805 88.3673 49.4716 87.6258 48.9087C86.8842 48.346 86.4086 47.4929 85.4584 45.7869L84.5926 44.2337C81.2459 38.2301 79.5726 35.2283 77.0705 35.2283Z" fill="#F4DC82"/>
<path d="M77.0713 22.668C99.4117 22.6681 117.373 40.1425 117.373 61.5176C117.373 82.8925 99.4115 100.366 77.0713 100.366C54.7309 100.366 36.7687 82.8926 36.7686 61.5176C36.7686 40.1424 54.7308 22.668 77.0713 22.668Z" stroke="#E4AB4B" stroke-width="5"/>
</svg>
