<svg width="734" height="734" viewBox="0 0 734 734" fill="none" xmlns="http://www.w3.org/2000/svg">
<path d="M265.333 0.333008H258.667L93.6668 76.9997C90.737 78.2778 88.2367 80.3714 86.4636 83.0309C84.6906 85.6905 83.7197 88.8037 83.6668 91.9997V215.333L73.6668 223.666L7.00009 278.666C4.68727 279.972 2.8171 281.939 1.62933 284.314C0.441552 286.69 -0.00969568 289.366 0.333426 292V442C0.186077 444.61 0.723771 447.214 1.89318 449.553C3.0626 451.892 4.8231 453.884 7.00009 455.333L73.6668 510.333L83.6668 518.666V642C83.7197 645.196 84.6906 648.309 86.4636 650.968C88.2367 653.628 90.737 655.722 93.6668 657L258.667 732H265.333L275.333 728.666L342 683.666V392H317C310.37 392 304.011 389.366 299.322 384.677C294.634 379.989 292 373.63 292 367C292 360.369 294.634 354.01 299.322 349.322C304.011 344.634 310.37 342 317 342H342V48.6663L275.333 3.66634L265.333 0.333008ZM117 192L163.667 223.666C166.423 225.509 168.785 227.882 170.616 230.647C172.446 233.412 173.708 236.513 174.329 239.77C174.949 243.028 174.915 246.376 174.229 249.62C173.544 252.864 172.219 255.939 170.333 258.666C168.303 262.183 165.39 265.109 161.883 267.155C158.375 269.202 154.394 270.297 150.333 270.333C147.89 270.431 145.451 270.039 143.161 269.18C140.872 268.322 138.777 267.014 137 265.333L117 252V192ZM33.6668 342H92.0001C98.6305 342 104.989 344.634 109.678 349.322C114.366 354.01 117 360.369 117 367C117 373.63 114.366 379.989 109.678 384.677C104.989 389.366 98.6305 392 92.0001 392H33.6668V342ZM117 482L137 468.666C139.594 466.82 142.539 465.523 145.653 464.858C148.768 464.192 151.985 464.171 155.108 464.795C158.23 465.42 161.192 466.677 163.811 468.489C166.429 470.301 168.649 472.63 170.333 475.333C172.219 478.06 173.544 481.135 174.229 484.38C174.915 487.624 174.949 490.972 174.329 494.229C173.708 497.486 172.446 500.587 170.616 503.352C168.785 506.117 166.423 508.49 163.667 510.333L117 542V482ZM292 277L225.333 343.666V390.333L292 457V543.666L235.333 602C229.978 605.914 223.62 608.226 217 608.666C210.381 608.226 204.023 605.914 198.667 602C193.978 597.047 191.365 590.486 191.365 583.666C191.365 576.846 193.978 570.286 198.667 565.333L242 523.666V477L175.333 410.333V323.666L242 257V210.333L198.667 168.666C195.228 166.561 192.311 163.703 190.136 160.308C187.961 156.912 186.584 153.068 186.109 149.063C185.635 145.059 186.074 140.999 187.395 137.189C188.715 133.379 190.883 129.919 193.734 127.067C196.586 124.216 200.046 122.048 203.856 120.728C207.666 119.407 211.726 118.967 215.73 119.442C219.735 119.917 223.579 121.294 226.975 123.469C230.37 125.644 233.228 128.561 235.333 132L292 190.333V277Z" fill="black" fill-opacity="0.2"/>
<path d="M727 278.667L660.333 223.667L650.333 215.333V92C650.28 88.8041 649.309 85.6908 647.536 83.0312C645.763 80.3717 643.263 78.2781 640.333 77L475.333 2H468.667L458.667 5.33333L392 50.3333V342H417C423.63 342 429.989 344.634 434.678 349.322C439.366 354.011 442 360.37 442 367C442 373.63 439.366 379.989 434.678 384.678C429.989 389.366 423.63 392 417 392H392V685.333L458.667 730.333L468.667 733.667H475.333L640.333 658.667C643.263 657.389 645.763 655.295 647.536 652.635C649.309 649.976 650.28 646.863 650.333 643.667V518.667L660.333 510.333L727 455.333C729.177 453.885 730.937 451.892 732.107 449.553C733.276 447.215 733.814 444.611 733.667 442V292C734.01 289.366 733.559 286.69 732.371 284.315C731.183 281.939 729.313 279.972 727 278.667ZM617 252L597 265.333C595.223 267.014 593.128 268.322 590.839 269.181C588.549 270.039 586.11 270.431 583.667 270.333C579.606 270.297 575.625 269.202 572.117 267.156C568.61 265.11 565.697 262.184 563.667 258.667C561.781 255.939 560.457 252.864 559.771 249.62C559.085 246.376 559.051 243.028 559.671 239.771C560.292 236.514 561.554 233.412 563.384 230.648C565.215 227.883 567.577 225.51 570.333 223.667L617 192V252ZM442 457L508.667 390.333V343.667L442 277V190.333L498.667 132C503.774 128.873 509.784 127.557 515.73 128.262C521.677 128.967 527.212 131.653 531.447 135.887C535.681 140.121 538.367 145.657 539.072 151.603C539.777 157.549 538.46 163.56 535.333 168.667L492 210.333V257L558.667 323.667V410.333L492 477V523.667L535.333 565.333C540.022 570.286 542.635 576.847 542.635 583.667C542.635 590.487 540.022 597.047 535.333 602C530.213 606.345 523.716 608.731 517 608.731C510.284 608.731 503.787 606.345 498.667 602L442 543.667V457ZM617 542L570.333 510.333C567.577 508.49 565.215 506.117 563.384 503.352C561.554 500.588 560.292 497.486 559.671 494.229C559.051 490.972 559.085 487.624 559.771 484.38C560.457 481.136 561.781 478.061 563.667 475.333C565.351 472.631 567.571 470.302 570.189 468.489C572.808 466.677 575.77 465.42 578.892 464.795C582.015 464.171 585.233 464.192 588.347 464.858C591.461 465.524 594.406 466.82 597 468.667L617 482V542ZM700.333 392H642C635.37 392 629.011 389.366 624.322 384.678C619.634 379.989 617 373.63 617 367C617 360.37 619.634 354.011 624.322 349.322C629.011 344.634 635.37 342 642 342H700.333V392Z" fill="black" fill-opacity="0.2"/>
</svg>
