<svg width="600" height="600" viewBox="0 0 600 600" fill="none" xmlns="http://www.w3.org/2000/svg">
<path fill-rule="evenodd" clip-rule="evenodd" d="M500 100V500H100V100H500ZM268.358 200H229.403L155.444 400H190.588L204.552 360.902H293.086L306.749 400H344.011L268.358 200ZM406.397 200H371.393V400H406.397V200ZM248.586 233.555L283.452 333.333H214.274L248.586 233.555ZM533.333 400H600V466.667H533.333V400ZM133.333 533.333H200V600H133.333V533.333ZM266.667 533.333H333.333V600H266.667V533.333ZM133.333 0H200V66.6667H133.333V0ZM400 533.333H466.667V600H400V533.333ZM266.667 0H333.333V66.6667H266.667V0ZM400 0H466.667V66.6667H400V0ZM533.333 266.667H600V333.333H533.333V266.667ZM0 400H66.6667V466.667H0V400ZM533.333 133.333H600V200H533.333V133.333ZM0 266.667H66.6667V333.333H0V266.667ZM0 133.333H66.6667V200H0V133.333Z" fill="black" fill-opacity="0.2"/>
</svg>
