<svg width="20" height="20" viewBox="0 0 20 20" fill="none" xmlns="http://www.w3.org/2000/svg">
<path fill-rule="evenodd" clip-rule="evenodd" d="M0 2.5H20V17.5H0V2.5Z" fill="#73BE4A"/>
<path fill-rule="evenodd" clip-rule="evenodd" d="M0 2.5V12.5H20V2.5H0Z" fill="#AF0100"/>
<path d="M0 2.5H3.75V17.5H0V2.5Z" fill="#F7FCFF"/>
<path fill-rule="evenodd" clip-rule="evenodd" d="M0.277344 3.89766L1.18547 2.53516L2.06984 3.89766L1.18547 5.19766L0.277344 3.89766ZM1.18234 4.64141L1.69109 3.89328L1.18234 3.10953L0.659844 3.89328L1.18234 4.64141ZM1.24984 3.79016H1.09359V4.11266H1.24984V3.79016ZM0.710469 5.11641L0.277344 5.73516L0.710469 6.32641L1.13234 5.73516L0.710469 5.11641ZM0.912969 5.74578L0.717969 6.01078L0.520469 5.73016L0.717344 5.43953L0.912969 5.74578ZM1.64797 5.11641L1.21484 5.73516L1.64797 6.32641L2.06984 5.73516L1.64797 5.11641ZM1.85047 5.74578L1.65547 6.01078L1.45797 5.73016L1.65484 5.43953L1.85047 5.74578Z" fill="#B20000"/>
<path fill-rule="evenodd" clip-rule="evenodd" d="M2.27297 5.11641L1.83984 5.73516L2.27297 6.32641L2.69484 5.73516L2.27297 5.11641ZM2.47547 5.74578L2.28047 6.01078L2.08297 5.73016L2.27984 5.43953L2.47547 5.74578ZM3.21047 5.11641L2.77734 5.73516L3.21047 6.32641L3.63234 5.73516L3.21047 5.11641ZM3.41297 5.74578L3.21797 6.01078L3.02047 5.73016L3.21734 5.43953L3.41297 5.74578ZM1.83984 3.89766L2.74797 2.53516L3.63234 3.89766L2.74797 5.19766L1.83984 3.89766ZM2.74484 4.64141L3.25359 3.89328L2.74484 3.10953L2.22234 3.89328L2.74484 4.64141ZM2.81234 3.79016H2.65609V4.11266H2.81234V3.79016Z" fill="#B20000"/>
<path d="M1.03531 10.2539L0.0234375 8.55453L0.289688 8.38578L1.02344 9.61703L1.91844 7.97266L2.83594 9.62141L3.48406 8.54578L3.74969 8.71578L2.82469 10.2502L1.92156 8.62516L1.03531 10.2539Z" fill="#B20000"/>
<path fill-rule="evenodd" clip-rule="evenodd" d="M0.46875 2.8225H0.636875V3.145H0.46875V2.8225ZM1.875 2.5H2.04313V2.8225H1.875V2.5ZM3.28125 2.8225H3.44938V3.145H3.28125V2.8225ZM0.46875 4.75813H0.625V5.08063H0.46875V4.75813ZM1.875 4.75813H2.03125V5.08063H1.875V4.75813ZM3.4375 4.75813H3.28125V5.08063H3.4375V4.75813ZM0.46875 6.37125H0.625V6.69375H0.46875V6.37125ZM1.875 6.37125H2.03125V6.69375H1.875V6.37125ZM3.4375 6.37125H3.28125V6.69375H3.4375V6.37125Z" fill="#B20000"/>
<path fill-rule="evenodd" clip-rule="evenodd" d="M1.37984 8.09668L0.964844 8.70168L0.309844 7.52231L1.17234 6.1748L1.91422 7.3498L2.65547 6.1748L3.51797 7.52231L2.86297 8.70168L2.44797 8.09668L2.77609 7.41543L2.65547 7.13793L1.95547 8.27418V8.40855L1.91422 8.34105L1.87234 8.40855V8.27355L1.17234 7.13793L1.05234 7.4148L1.37984 8.09668ZM1.87484 9.1123H2.03109V9.43543H1.87484V9.1123ZM1.87484 10.7254H2.03109V11.0479H1.87484V10.7254ZM1.87484 9.59668H1.71859V9.91918H1.87484V10.0804H1.71859V10.4029H1.87484V10.2417H2.03109V10.4029H2.18734V10.0804H2.03109V9.91918H2.18734V9.59668H2.03109V9.91918H1.87484V9.59668ZM1.40609 9.91918H1.56234V10.2417H1.40609V9.91918ZM2.49984 9.91918H2.34359V10.2417H2.49984V9.91918ZM0.312344 9.91918H0.468594V10.2417H0.312344V9.91918ZM3.59359 9.91918H3.43734V10.2417H3.59359V9.91918ZM0.277344 16.1023L1.18547 17.4648L2.06984 16.1023L1.18547 14.8023L0.277344 16.1023ZM1.18234 15.3586L1.69109 16.1067L1.18234 16.8898L0.659844 16.1067L1.18234 15.3586ZM1.24984 16.2098H1.09359V15.8873H1.24984V16.2098ZM0.710469 14.8836L0.277344 14.2648L0.710469 13.6736L1.13234 14.2642L0.710469 14.8836ZM0.912969 14.2542L0.717969 13.9892L0.520469 14.2698L0.717344 14.5604L0.912969 14.2542ZM1.64797 14.8836L1.21484 14.2648L1.64797 13.6736L2.06984 14.2642L1.64797 14.8836ZM1.85047 14.2542L1.65547 13.9892L1.45797 14.2698L1.65484 14.5604L1.85047 14.2542Z" fill="#B20000"/>
<path fill-rule="evenodd" clip-rule="evenodd" d="M2.27297 14.8838L1.83984 14.2651L2.27297 13.6738L2.69484 14.2645L2.27297 14.8838ZM2.47547 14.2545L2.28047 13.9895L2.08297 14.2701L2.27984 14.5607L2.47547 14.2545ZM3.21047 14.8838L2.77734 14.2651L3.21047 13.6738L3.63234 14.2645L3.21047 14.8838ZM3.41297 14.2545L3.21797 13.9895L3.02047 14.2701L3.21734 14.5607L3.41297 14.2545ZM1.83984 16.1026L2.74797 17.4651L3.63234 16.1026L2.74797 14.8026L1.83984 16.1026ZM2.74484 15.3588L3.25359 16.107L2.74484 16.8901L2.22234 16.107L2.74484 15.3588ZM2.81234 16.2095H2.65609V15.887H2.81234V16.2095Z" fill="#B20000"/>
<path d="M1.03531 9.74609L0.0234375 11.4455L0.289688 11.6142L1.02344 10.383L1.91844 12.0273L2.83594 10.3786L3.48406 11.4542L3.74969 11.2842L2.82469 9.74984L1.92156 11.3748L1.03531 9.74609Z" fill="#B20000"/>
<path fill-rule="evenodd" clip-rule="evenodd" d="M0.46875 17.1779H0.636875V16.8554H0.46875V17.1779ZM1.875 17.5004H2.04313V17.1779H1.875V17.5004ZM3.28125 17.1779H3.44938V16.8554H3.28125V17.1779ZM0.46875 15.2423H0.625V14.9198H0.46875V15.2423ZM1.875 15.2423H2.03125V14.9198H1.875V15.2423ZM3.4375 15.2423H3.28125V14.9198H3.4375V15.2423ZM0.46875 13.6291H0.625V13.3066H0.46875V13.6291ZM1.875 13.6291H2.03125V13.3066H1.875V13.6291ZM3.4375 13.6291H3.28125V13.3066H3.4375V13.6291Z" fill="#B20000"/>
<path fill-rule="evenodd" clip-rule="evenodd" d="M1.37957 11.9953L0.96457 11.3903L0.30957 12.5684L1.17207 13.9159L1.91395 12.7415L2.6552 13.9165L3.5177 12.5684L2.8627 11.3896L2.4477 11.9946L2.77582 12.6759L2.6552 12.9528L1.9552 11.8171V11.6828L1.91395 11.7496L1.87207 11.6828V11.8171L1.17207 12.9528L1.05207 12.6759L1.37957 11.9953Z" fill="#B20000"/>
</svg>
