<svg width="16" height="16" viewBox="0 0 16 16" fill="none" xmlns="http://www.w3.org/2000/svg">
<path d="M9.08333 0.541469C9.08333 0.244061 9.36979 0 9.72787 0C10.0859 0 10.3724 0.241394 10.3724 0.541469V2.90739C10.3724 3.2048 10.0859 3.44886 9.72787 3.44886C9.36979 3.44886 9.08333 3.20747 9.08333 2.90739V0.541469ZM1.87109 10.4093H3.34766C3.44141 10.4093 3.51823 10.488 3.51823 10.584V11.7016C3.51823 11.7976 3.44141 11.8763 3.34766 11.8763H1.87109C1.77734 11.8763 1.70052 11.7976 1.70052 11.7016V10.584C1.70052 10.4866 1.77734 10.4093 1.87109 10.4093ZM7.52474 7.22447H9.0013C9.04688 7.22447 9.08724 7.24314 9.11849 7.27248C8.53906 7.64324 8.03646 8.12603 7.63802 8.69284H7.52474C7.43099 8.69284 7.35417 8.61415 7.35417 8.51813V7.40052C7.35417 7.30316 7.43099 7.22447 7.52474 7.22447ZM4.69792 7.22447H6.17448C6.26823 7.22447 6.34505 7.30316 6.34505 7.39918V8.5168C6.34505 8.61282 6.26823 8.69151 6.17448 8.69151H4.69792C4.60417 8.69151 4.52734 8.61282 4.52734 8.5168V7.39918C4.52734 7.30316 4.60417 7.22447 4.69792 7.22447ZM1.87109 7.22447H3.34766C3.44141 7.22447 3.51823 7.30316 3.51823 7.39918V8.5168C3.51823 8.61282 3.44141 8.69151 3.34766 8.69151H1.87109C1.77734 8.69151 1.70052 8.61282 1.70052 8.5168V7.39918C1.70052 7.30316 1.77734 7.22447 1.87109 7.22447ZM4.69792 10.4093H6.17448C6.26823 10.4093 6.34505 10.488 6.34505 10.584V11.7016C6.34505 11.7976 6.26823 11.8763 6.17448 11.8763H4.69792C4.60417 11.8763 4.52734 11.7976 4.52734 11.7016V10.584C4.52734 10.4866 4.60417 10.4093 4.69792 10.4093ZM13.4753 7.94065C15 8.58748 16 10.1119 16 11.811C16 12.9672 15.5417 14.0155 14.8021 14.773C14.0625 15.5305 13.0404 16 11.9102 16C10.7813 16 9.75912 15.5305 9.01823 14.773C8.27865 14.0142 7.82031 12.9672 7.82031 11.811C7.82031 10.1252 8.84375 8.5528 10.3659 7.91264C11.3099 7.51788 12.5378 7.54189 13.4753 7.94065ZM11.2813 11.6989C11.332 11.6416 11.3945 11.5922 11.4622 11.5549V9.7331C11.4622 9.54772 11.6094 9.39702 11.7904 9.39702C11.9714 9.39702 12.1198 9.54772 12.1198 9.7331V11.5549C12.2396 11.6216 12.3385 11.7216 12.4023 11.8443H13.6732C13.8555 11.8443 14.0013 11.995 14.0013 12.1804C14.0013 12.3658 13.8542 12.5165 13.6732 12.5165H12.4023C12.2852 12.7405 12.056 12.8926 11.7904 12.8926C11.582 12.8926 11.3958 12.7979 11.2682 12.6498C11.0326 12.3738 11.0443 11.9617 11.2813 11.6989ZM14.3385 9.39035C12.6445 7.65525 9.78776 8.14604 8.79688 10.3306C8.59375 10.78 8.47917 11.2815 8.47917 11.8096C8.47917 12.7805 8.86328 13.6594 9.48438 14.2956C10.1055 14.9317 10.9635 15.3252 11.9115 15.3252C12.8594 15.3252 13.7174 14.9304 14.3385 14.2956C14.9596 13.6594 15.3438 12.7805 15.3438 11.8096C15.3438 11.2588 15.2201 10.7374 15 10.2732C14.832 9.92248 14.6081 9.66642 14.3385 9.39035ZM3.29818 0.541469C3.29818 0.244061 3.58464 0 3.94271 0C4.29948 0 4.58724 0.241394 4.58724 0.541469V2.90739C4.58724 3.2048 4.29948 3.44886 3.94271 3.44886C3.58594 3.44886 3.29818 3.20747 3.29818 2.90739V0.541469ZM0.709635 5.17329H12.9766V2.44995C12.9766 2.35659 12.9401 2.27524 12.8815 2.21522C12.8229 2.15521 12.7396 2.11786 12.6523 2.11786H11.4766C11.2799 2.11786 11.1198 1.95382 11.1198 1.75244C11.1198 1.55105 11.2799 1.38701 11.4766 1.38701H12.6523C12.9401 1.38701 13.1992 1.50571 13.388 1.69909C13.5768 1.89247 13.6927 2.15787 13.6927 2.45261V6.77769C13.4583 6.69501 13.2174 6.62832 12.9688 6.57898V5.90281H12.9766H0.709635V12.9592C0.709635 13.0526 0.746094 13.134 0.804688 13.194C0.863281 13.254 0.946615 13.2913 1.03385 13.2913H6.86328C6.92969 13.5447 7.01302 13.7928 7.11328 14.0302H1.04036C0.753906 14.0302 0.49349 13.9115 0.304688 13.7181C0.115885 13.5234 0 13.2593 0 12.9646V2.45261C0 2.15921 0.115885 1.89381 0.304688 1.69909C0.49349 1.50571 0.752604 1.38701 1.04036 1.38701H2.29557C2.49219 1.38701 2.65234 1.55105 2.65234 1.75244C2.65234 1.95382 2.49219 2.11786 2.29557 2.11786H1.04036C0.949219 2.11786 0.869792 2.15521 0.811198 2.21522C0.752604 2.27524 0.716146 2.36059 0.716146 2.44995V5.17463H0.709635V5.17329ZM5.61589 2.11653C5.41927 2.11653 5.25911 1.95249 5.25911 1.7511C5.25911 1.54972 5.41927 1.38568 5.61589 1.38568H8.01042C8.20703 1.38568 8.36719 1.54972 8.36719 1.7511C8.36719 1.95249 8.20703 2.11653 8.01042 2.11653H5.61589Z" fill="#ED5F40"/>
</svg>
