<svg width="668" height="663" viewBox="0 0 668 663" fill="none" xmlns="http://www.w3.org/2000/svg">
<path d="M643.34 549.67L588.34 562.67C576.007 565.67 566.34 575.003 563.674 587.337L552.007 636.337C545.674 663.003 511.674 671.337 494.007 650.337L394.34 535.67C386.34 526.337 390.674 511.67 402.674 508.67C461.674 494.337 514.674 461.337 553.674 414.337C560.007 406.67 571.34 405.67 578.34 412.67L652.34 486.67C677.674 512.003 668.674 543.67 643.34 549.67Z" fill="black" fill-opacity="0.2"/>
<path d="M24.9732 549.67L79.9732 562.67C92.3065 565.67 101.973 575.003 104.64 587.337L116.307 636.337C122.64 663.003 156.64 671.337 174.307 650.337L273.974 535.67C281.974 526.337 277.64 511.67 265.64 508.67C206.64 494.337 153.64 461.337 114.64 414.337C108.307 406.67 96.9732 405.67 89.9732 412.67L15.9732 486.67C-9.36013 512.003 -0.360134 543.67 24.9732 549.67Z" fill="black" fill-opacity="0.2"/>
<path d="M335 0.666504C206 0.666504 101.667 105 101.667 234C101.667 282.333 116 326.667 140.667 363.667C176.667 417 233.667 454.666 300 464.333C311.334 466.333 323 467.333 335 467.333C347 467.333 358.667 466.333 370 464.333C436.334 454.666 493.334 417 529.334 363.667C554 326.667 568.334 282.333 568.334 234C568.334 105 464 0.666504 335 0.666504ZM437 226.666L409.334 254.333C404.667 259 402 268 403.667 274.667L411.667 309C418 336 403.667 346.666 379.667 332.333L346.334 312.666C340.334 309 330.334 309 324.334 312.666L291 332.333C267 346.333 252.667 336 259 309L267 274.667C268.334 268.333 266 259 261.334 254.333L233 226.666C216.667 210.333 222 194 244.667 190.333L280.334 184.333C286.334 183.333 293.334 178 296 172.666L315.667 133.333C326.334 112 343.667 112 354.334 133.333L374 172.666C376.667 178 383.667 183.333 390 184.333L425.667 190.333C448 194 453.334 210.333 437 226.666Z" fill="black" fill-opacity="0.2"/>
</svg>
