<svg width="48" height="48" viewBox="0 0 48 48" fill="none" xmlns="http://www.w3.org/2000/svg">
<circle cx="24" cy="24" r="24" fill="#E5E5E5"/>
<path d="M26.9362 35.974C26.9399 35.9386 26.9419 35.9026 26.9419 35.8662V27.2232H29.8959C30.3696 27.2232 30.7959 26.9112 30.8652 26.4427C30.9797 25.6675 30.931 24.9626 30.857 24.4613C30.789 24.0011 30.3789 23.6982 29.9139 23.6982H26.9419C26.9419 21.0347 27.3851 20.6471 29.8831 20.5986C30.3625 20.5893 30.7927 20.2728 30.8623 19.7984C30.9793 19.0009 30.9326 18.3042 30.8593 17.8141C30.7915 17.3613 30.3855 17.0662 29.9278 17.0702C25.5127 17.1087 22.998 17.6308 22.998 23.6982H20.7107C20.2661 23.6982 19.8715 23.9769 19.8042 24.4164C19.7318 24.8899 19.688 25.5762 19.8089 26.411C19.8788 26.8932 20.3125 27.2232 20.7997 27.2232H22.998V36C19.5794 35.9775 17.1324 35.8426 15.539 35.7131C13.7855 35.5707 12.4325 34.2175 12.2901 32.4637C12.1483 30.7186 12 27.9496 12 24.0016C12 20.0537 12.1483 17.2846 12.2901 15.5395C12.4325 13.7858 13.7855 12.4326 15.539 12.2901C17.2839 12.1483 20.0526 12 24 12C27.9474 12 30.7161 12.1483 32.461 12.2901C34.2145 12.4326 35.5675 13.7858 35.7099 15.5395C35.8517 17.2846 36 20.0537 36 24.0016C36 27.9496 35.8517 30.7186 35.7099 32.4637C35.5675 34.2175 34.2145 35.5707 32.461 35.7131C31.1861 35.8167 29.3646 35.9238 26.9362 35.974Z" fill="#535353"/>
</svg>
