<svg width="24" height="24" viewBox="0 0 24 24" fill="none" xmlns="http://www.w3.org/2000/svg">
<path d="M14.9362 23.974C14.9399 23.9386 14.9419 23.9026 14.9419 23.8662V15.2232H17.8959C18.3696 15.2232 18.7959 14.9112 18.8652 14.4427C18.9797 13.6675 18.931 12.9626 18.857 12.4613C18.789 12.0011 18.3789 11.6982 17.9139 11.6982H14.9419C14.9419 9.03467 15.3851 8.64709 17.8831 8.59861C18.3625 8.58932 18.7927 8.2728 18.8623 7.79839C18.9793 7.00095 18.9326 6.30421 18.8593 5.81407C18.7915 5.36131 18.3855 5.06618 17.9278 5.07018C13.5127 5.10869 10.998 5.63079 10.998 11.6982H8.71067C8.26613 11.6982 7.87147 11.9769 7.80421 12.4164C7.73179 12.8899 7.688 13.5762 7.80891 14.411C7.87877 14.8932 8.31248 15.2232 8.79973 15.2232H10.998V24C7.57936 23.9775 5.13237 23.8426 3.53904 23.7131C1.78552 23.5707 0.432544 22.2175 0.290075 20.4637C0.148309 18.7186 0 15.9496 0 12.0016C0 8.05368 0.148309 5.28461 0.290075 3.53952C0.432544 1.78576 1.78552 0.432603 3.53905 0.290114C5.28389 0.148324 8.05259 0 12 0C15.9474 0 18.7161 0.148329 20.461 0.290114C22.2145 0.432603 23.5675 1.78576 23.7099 3.53952C23.8517 5.28461 24 8.05368 24 12.0016C24 15.9496 23.8517 18.7186 23.7099 20.4637C23.5675 22.2175 22.2145 23.5707 20.461 23.7131C19.1861 23.8167 17.3646 23.9238 14.9362 23.974Z" fill="#535353"/>
</svg>
