<svg width="24" height="24" viewBox="0 0 24 24" fill="none" xmlns="http://www.w3.org/2000/svg">
<path fill-rule="evenodd" clip-rule="evenodd" d="M5.14287 0C2.30255 0 0 2.30253 0 5.14285V18.8571C0 21.6974 2.30255 24 5.14287 24H18.8573C21.6976 24 24 21.6974 24 18.8571V5.14285C24 2.30253 21.6976 0 18.8573 0H5.14287ZM20.3377 5.1503C20.3377 5.96843 19.6744 6.63166 18.8563 6.63166C18.0381 6.63166 17.3749 5.96843 17.3749 5.1503C17.3749 4.33215 18.0381 3.66894 18.8563 3.66894C19.6744 3.66894 20.3377 4.33215 20.3377 5.1503ZM12.0003 7.89143C9.73127 7.89143 7.89184 9.73085 7.89184 11.9999C7.89184 14.2689 9.73127 16.1083 12.0003 16.1083C14.2693 16.1083 16.1088 14.2689 16.1088 11.9999C16.1088 9.73085 14.2693 7.89143 12.0003 7.89143ZM5.91668 11.9999C5.91668 8.63999 8.64041 5.91628 12.0003 5.91628C15.3602 5.91628 18.0839 8.63999 18.0839 11.9999C18.0839 15.3597 15.3602 18.0834 12.0003 18.0834C8.64041 18.0834 5.91668 15.3597 5.91668 11.9999Z" fill="#535353"/>
</svg>
