<svg width="49" height="49" viewBox="0 0 49 49" fill="none" xmlns="http://www.w3.org/2000/svg">
<path d="M45.0519 0.480469H3.89833C2.01261 0.480469 0.480469 2.03404 0.480469 3.94118V45.0198C0.480469 46.9269 2.01261 48.4805 3.89833 48.4805H45.0519C46.9376 48.4805 48.4805 46.9269 48.4805 45.0198V3.94118C48.4805 2.03404 46.9376 0.480469 45.0519 0.480469ZM14.9876 41.6233H7.87333V18.7162H14.9983V41.6233H14.9876ZM11.4305 15.5876C9.14832 15.5876 7.30547 13.734 7.30547 11.4626C7.30547 9.19118 9.14832 7.33761 11.4305 7.33761C13.7019 7.33761 15.5555 9.19118 15.5555 11.4626C15.5555 13.7448 13.7126 15.5876 11.4305 15.5876ZM41.6555 41.6233H34.5412V30.4805C34.5412 27.8233 34.4876 24.4055 30.8448 24.4055C27.1376 24.4055 26.5698 27.2983 26.5698 30.2876V41.6233H19.4555V18.7162H26.2805V21.8448H26.3769C27.3305 20.0448 29.6555 18.1483 33.1162 18.1483C40.3162 18.1483 41.6555 22.8948 41.6555 29.0662V41.6233Z" fill="white"/>
</svg>
