<svg width="48" height="48" viewBox="0 0 48 48" fill="none" xmlns="http://www.w3.org/2000/svg">
<path d="M29.8724 47.9481C29.8799 47.8772 29.8837 47.8052 29.8837 47.7324V30.4464H35.7919C36.7392 30.4464 37.5919 29.8225 37.7304 28.8853C37.9594 27.3349 37.8621 25.9251 37.7139 24.9226C37.5779 24.0023 36.7579 23.3965 35.8277 23.3965H29.8837C29.8837 18.0693 30.7701 17.2942 35.7663 17.1972C36.7249 17.1786 37.5855 16.5456 37.7246 15.5968C37.9585 14.0019 37.8653 12.6084 37.7185 11.6281C37.5829 10.7226 36.7711 10.1324 35.8557 10.1404C27.0254 10.2174 21.9961 11.2616 21.9961 23.3965H17.4213C16.5323 23.3965 15.7429 23.9538 15.6084 24.8327C15.4636 25.7797 15.376 27.1524 15.6178 28.8219C15.7575 29.7864 16.625 30.4464 17.5995 30.4464H21.9961V48C15.1587 47.9551 10.2647 47.6852 7.07808 47.4263C3.57104 47.1413 0.865088 44.4349 0.580149 40.9275C0.296619 37.4373 0 31.8992 0 24.0033C0 16.1074 0.296619 10.5692 0.580149 7.07904C0.865088 3.57151 3.57104 0.865205 7.07809 0.580228C10.5678 0.296648 16.1052 0 24 0C31.8948 0 37.4322 0.296659 40.9219 0.580228C44.4289 0.865205 47.1349 3.57152 47.4198 7.07904C47.7034 10.5692 48 16.1074 48 24.0033C48 31.8992 47.7034 37.4373 47.4198 40.9275C47.1349 44.435 44.4289 47.1413 40.9219 47.4263C38.3722 47.6334 34.7293 47.8477 29.8724 47.9481Z" fill="white"/>
</svg>
