<svg width="48" height="48" viewBox="0 0 48 48" fill="none" xmlns="http://www.w3.org/2000/svg">
<rect x="5" y="4" width="37" height="41" fill="#ED5F40"/>
<path fill-rule="evenodd" clip-rule="evenodd" d="M10.2857 0C4.60509 0 0 4.60506 0 10.2857V37.7142C0 43.3947 4.60509 48 10.2857 48H37.7145C43.3951 48 48 43.3947 48 37.7142V10.2857C48 4.60506 43.3951 0 37.7145 0H10.2857ZM40.6753 10.3006C40.6753 11.9369 39.3488 13.2633 37.7126 13.2633C36.0763 13.2633 34.7498 11.9369 34.7498 10.3006C34.7498 8.66431 36.0763 7.33787 37.7126 7.33787C39.3488 7.33787 40.6753 8.66431 40.6753 10.3006ZM24.0006 15.7829C19.4625 15.7829 15.7837 19.4617 15.7837 23.9997C15.7837 28.5377 19.4625 32.2166 24.0006 32.2166C28.5386 32.2166 32.2175 28.5377 32.2175 23.9997C32.2175 19.4617 28.5386 15.7829 24.0006 15.7829ZM11.8334 23.9997C11.8334 17.28 17.2808 11.8326 24.0006 11.8326C30.7204 11.8326 36.1678 17.28 36.1678 23.9997C36.1678 30.7195 30.7204 36.1669 24.0006 36.1669C17.2808 36.1669 11.8334 30.7195 11.8334 23.9997Z" fill="white"/>
</svg>
