<svg width="48" height="48" viewBox="0 0 48 48" fill="none" xmlns="http://www.w3.org/2000/svg">
<circle cx="24" cy="24" r="24" fill="#E5E5E5"/>
<path fill-rule="evenodd" clip-rule="evenodd" d="M17.1429 12C14.3025 12 12 14.3025 12 17.1429V30.8571C12 33.6974 14.3025 36 17.1429 36H30.8573C33.6976 36 36 33.6974 36 30.8571V17.1429C36 14.3025 33.6976 12 30.8573 12H17.1429ZM32.3377 17.1503C32.3377 17.9684 31.6744 18.6317 30.8563 18.6317C30.0381 18.6317 29.3749 17.9684 29.3749 17.1503C29.3749 16.3322 30.0381 15.6689 30.8563 15.6689C31.6744 15.6689 32.3377 16.3322 32.3377 17.1503ZM24.0003 19.8914C21.7313 19.8914 19.8918 21.7308 19.8918 23.9999C19.8918 26.2689 21.7313 28.1083 24.0003 28.1083C26.2693 28.1083 28.1088 26.2689 28.1088 23.9999C28.1088 21.7308 26.2693 19.8914 24.0003 19.8914ZM17.9167 23.9999C17.9167 20.64 20.6404 17.9163 24.0003 17.9163C27.3602 17.9163 30.0839 20.64 30.0839 23.9999C30.0839 27.3597 27.3602 30.0834 24.0003 30.0834C20.6404 30.0834 17.9167 27.3597 17.9167 23.9999Z" fill="#535353"/>
</svg>
