<svg width="48" height="48" viewBox="0 0 48 48" fill="none" xmlns="http://www.w3.org/2000/svg">
<circle cx="24" cy="24" r="24" fill="#E5E5E5"/>
<path d="M34.2857 12H13.7089C12.7661 12 12 12.7768 12 13.7304V34.2696C12 35.2232 12.7661 36 13.7089 36H34.2857C35.2286 36 36 35.2232 36 34.2696V13.7304C36 12.7768 35.2286 12 34.2857 12ZM19.2536 32.5714H15.6964V21.1179H19.2589V32.5714H19.2536ZM17.475 19.5536C16.3339 19.5536 15.4125 18.6268 15.4125 17.4911C15.4125 16.3554 16.3339 15.4286 17.475 15.4286C18.6107 15.4286 19.5375 16.3554 19.5375 17.4911C19.5375 18.6321 18.6161 19.5536 17.475 19.5536ZM32.5875 32.5714H29.0304V27C29.0304 25.6714 29.0036 23.9625 27.1821 23.9625C25.3286 23.9625 25.0446 25.4089 25.0446 26.9036V32.5714H21.4875V21.1179H24.9V22.6821H24.9482C25.425 21.7821 26.5875 20.8339 28.3179 20.8339C31.9179 20.8339 32.5875 23.2071 32.5875 26.2929V32.5714Z" fill="#535353"/>
</svg>
