<svg width="24" height="24" viewBox="0 0 24 24" fill="none" xmlns="http://www.w3.org/2000/svg">
<path d="M12.0003 10.3199C12.9281 10.3199 13.6802 9.56776 13.6802 8.63996C13.6802 7.71216 12.9281 6.95996 12.0003 6.95996C11.0725 6.95996 10.3203 7.71216 10.3203 8.63996C10.3203 9.56776 11.0725 10.3199 12.0003 10.3199Z" fill="#ED5F40"/>
<path d="M11.9999 0.240234C7.36816 0.240234 3.59961 3.84448 3.59961 8.27308C3.59961 10.382 4.56091 13.1867 6.45671 16.6093C7.97926 19.3573 9.74076 21.8422 10.6569 23.0786C10.8118 23.2899 11.0142 23.4617 11.2477 23.5801C11.4814 23.6986 11.7396 23.7602 12.0015 23.7602C12.2634 23.7602 12.5216 23.6986 12.7553 23.5801C12.9889 23.4617 13.1913 23.2899 13.3461 23.0786C14.2606 21.8422 16.0237 19.3573 17.5462 16.6093C19.439 13.1878 20.4002 10.3831 20.4002 8.27308C20.4002 3.84448 16.6316 0.240234 11.9999 0.240234ZM11.9999 12.0007C11.3354 12.0007 10.6857 11.8036 10.1332 11.4344C9.58056 11.0652 9.14991 10.5404 8.89556 9.92643C8.64126 9.31243 8.57471 8.63683 8.70436 7.98503C8.83401 7.33323 9.15406 6.73448 9.62391 6.26458C10.0939 5.79468 10.6926 5.47468 11.3444 5.34503C11.9962 5.21533 12.6718 5.28188 13.2858 5.53623C13.8998 5.79053 14.4246 6.22123 14.7938 6.77383C15.163 7.32633 15.36 7.97599 15.36 8.64058C15.3591 9.53139 15.0048 10.3855 14.3748 11.0154C13.7449 11.6454 12.8908 11.9997 11.9999 12.0007Z" fill="#ED5F40"/>
</svg>
