<svg width="24" height="24" viewBox="0 0 24 24" fill="none" xmlns="http://www.w3.org/2000/svg">
<path d="M23 7V17.6306C23 18.49 22.6784 19.317 22.101 19.9423C21.5235 20.5676 20.7339 20.944 19.8936 20.9944L19.7 21H4.3C3.45827 21 2.64833 20.6717 2.03591 20.0821C1.42349 19.4925 1.05488 18.6862 1.0055 17.8282L1 17.6306V7L11.3895 14.0724L11.5171 14.1466C11.6675 14.2216 11.8326 14.2606 12 14.2606C12.1674 14.2606 12.3325 14.2216 12.4829 14.1466L12.6105 14.0724L23 7Z" fill="white"/>
<path d="M20.0586 3C21.3019 3 22.3922 3.65795 23 4.64717L12 12L1 4.64717C1.28865 4.17711 1.68523 3.78307 2.15665 3.49794C2.62807 3.21281 3.16067 3.04485 3.71 3.00808L3.94139 3H20.0586Z" fill="white"/>
</svg>
