<svg width="20" height="20" viewBox="0 0 20 20" fill="none" xmlns="http://www.w3.org/2000/svg">
<path d="M16.7139 13.0944C16.8823 12.9977 16.9864 12.8186 16.987 12.6244L16.9968 9.47632C16.9974 9.28213 17.1015 9.10301 17.2699 9.0063L18.9764 8.02603C19.1448 7.92936 19.3518 7.92972 19.5198 8.02695C19.6878 8.12418 19.7913 8.30357 19.7913 8.49768V14.2211C19.7913 14.4158 19.6872 14.5957 19.5183 14.6927L13.0779 18.3919C12.9105 18.488 12.7047 18.4882 12.5372 18.3924L7.48288 15.5016C7.31338 15.4048 7.20876 15.2246 7.2087 15.0294V12.1435C7.2087 12.1403 7.21251 12.1381 7.21578 12.1397C7.21849 12.1414 7.2223 12.1397 7.2223 12.1359V12.1327C7.2223 12.1305 7.22338 12.1283 7.22557 12.1272L11.3882 9.7358C11.392 9.73363 11.3904 9.72765 11.3861 9.72765C11.3837 9.72765 11.3817 9.7257 11.3817 9.7233L11.3899 6.89397C11.3906 6.69924 11.2873 6.51893 11.1188 6.42124C10.9503 6.32353 10.7425 6.32332 10.5739 6.4207L7.48015 8.20336C7.31211 8.30013 7.10528 8.30013 6.93724 8.20336L3.83374 6.41634C3.66547 6.31945 3.4583 6.31959 3.29015 6.41674C3.12203 6.51386 3.0184 6.69326 3.0183 6.88745V12.001C3.01843 12.195 2.91526 12.3743 2.74755 12.4718C2.57982 12.5692 2.3729 12.5699 2.20449 12.4737L0.482184 11.4891C0.312363 11.3921 0.207682 11.2114 0.208009 11.0158L0.223242 2.07797C0.223665 1.88405 0.327279 1.70502 0.495209 1.60806C0.663138 1.51109 0.86999 1.51084 1.03815 1.60741L6.9378 4.99597C7.10555 5.0923 7.31186 5.0923 7.47961 4.99597L13.3776 1.60741C13.546 1.5107 13.7532 1.5111 13.9213 1.60847C14.0893 1.70583 14.1927 1.88539 14.1925 2.0796V11.0196C14.1926 11.2143 14.0887 11.3942 13.92 11.4913L10.8312 13.2702C10.6623 13.3675 10.5584 13.5478 10.5589 13.7427C10.5593 13.9376 10.664 14.1174 10.8333 14.214L12.5372 15.1839C12.7047 15.2793 12.9102 15.2789 13.0773 15.1828L16.7139 13.0944ZM17.0714 5.07484C17.0715 5.2707 17.1769 5.45134 17.3474 5.54782C17.5178 5.6443 17.727 5.64172 17.895 5.54105L19.527 4.56186C19.6908 4.46365 19.7912 4.2867 19.7913 4.09565V2.10028C19.791 1.90452 19.6855 1.72404 19.5151 1.6277C19.3447 1.53135 19.1357 1.53399 18.9677 1.63461L17.3357 2.6138C17.1719 2.71201 17.0715 2.88897 17.0714 3.08001V5.07484Z" fill="#007FFF"/>
</svg>
