<svg width="12" height="13" viewBox="0 0 12 13" fill="none" xmlns="http://www.w3.org/2000/svg">
<path d="M5.656 1.05872C5.76428 0.725478 6.23572 0.725479 6.344 1.05872L7.49039 4.58695C7.53881 4.73598 7.67769 4.83688 7.83439 4.83688H11.5442C11.8946 4.83688 12.0403 5.28525 11.7568 5.49121L8.7555 7.67177C8.62873 7.76388 8.57568 7.92714 8.62411 8.07617L9.7705 11.6044C9.87878 11.9376 9.49737 12.2148 9.2139 12.0088L6.2126 9.82823C6.08583 9.73612 5.91417 9.73612 5.7874 9.82823L2.7861 12.0088C2.50263 12.2148 2.12123 11.9376 2.2295 11.6044L3.37589 8.07617C3.42432 7.92714 3.37127 7.76388 3.2445 7.67177L0.243203 5.4912C-0.0402668 5.28525 0.105418 4.83688 0.455806 4.83688H4.16561C4.32231 4.83688 4.46119 4.73598 4.50961 4.58695L5.656 1.05872Z" fill="#ED5F40"/>
</svg>
