<svg width="800" height="800" viewBox="0 0 800 800" fill="none" xmlns="http://www.w3.org/2000/svg">
<g clip-path="url(#clip0_32068_20)">
<path d="M127.14 158.437C170.711 158.437 206.033 123.116 206.033 79.5446C206.033 35.9736 170.711 0.652344 127.14 0.652344C83.5693 0.652344 48.248 35.9736 48.248 79.5446C48.248 123.116 83.5693 158.437 127.14 158.437Z" fill="black" fill-opacity="0.2"/>
<path d="M39.1201 434.88H46.9441V591.36C46.9441 612.883 64.5482 630.48 86.0643 630.48H168.217C189.733 630.48 207.337 612.883 207.337 591.36V582.239C200.165 568.54 195.601 552.899 195.601 536.598V331.87C195.601 292.098 219.725 257.542 254.281 242.546V226.897C254.281 205.381 236.677 187.777 215.161 187.777H39.1201C17.6041 187.777 0 205.381 0 226.897V395.766C0 417.282 16.9521 434.88 39.1201 434.88Z" fill="black" fill-opacity="0.2"/>
<path d="M673.518 158.437C717.089 158.437 752.411 123.116 752.411 79.5446C752.411 35.9736 717.089 0.652344 673.518 0.652344C629.947 0.652344 594.626 35.9736 594.626 79.5446C594.626 123.116 629.947 158.437 673.518 158.437Z" fill="black" fill-opacity="0.2"/>
<path d="M545.719 226.245V241.893C580.281 256.889 604.399 291.445 604.399 331.217V535.294C604.399 551.594 600.487 567.242 592.669 580.934V590.062C592.669 611.578 610.267 629.182 631.79 629.182H713.942C735.458 629.182 753.062 611.578 753.062 590.062V433.582H760.879C782.402 433.582 800 415.978 800 394.462V226.245C800 204.729 782.402 187.125 760.879 187.125H584.839C563.329 187.125 545.719 204.723 545.719 226.245Z" fill="black" fill-opacity="0.2"/>
<path d="M254.933 331.863V395.759V536.591C254.933 558.107 272.537 575.711 294.053 575.711H309.049V760.228C309.049 781.744 326.653 799.348 348.169 799.348H453.141C474.657 799.348 492.261 781.744 492.261 760.228V575.059H507.257C528.774 575.059 546.378 557.462 546.378 535.939V395.765V331.869C546.378 310.353 528.774 292.749 507.257 292.749H294.053C271.885 292.743 254.933 310.353 254.933 331.863Z" fill="black" fill-opacity="0.2"/>
<path d="M400.329 260.149C450.382 260.149 490.958 219.573 490.958 169.521C490.958 119.468 450.382 78.8926 400.329 78.8926C350.277 78.8926 309.701 119.468 309.701 169.521C309.701 219.573 350.277 260.149 400.329 260.149Z" fill="black" fill-opacity="0.2"/>
</g>
<defs>
<clipPath id="clip0_32068_20">
<rect width="800" height="800" fill="white"/>
</clipPath>
</defs>
</svg>
