<svg width="24" height="24" viewBox="0 0 24 24" fill="none" xmlns="http://www.w3.org/2000/svg">
<path d="M0.00105858 6.9632C0.298758 16.4229 8.06295 24 17.5979 24C21.2433 24 24 21.1547 24 17.5632C24 17.0835 23.8562 16.6149 23.5871 16.2177C23.3181 15.8205 22.9362 15.513 22.4907 15.3349L19.2016 14.0197C18.6684 13.8065 18.0844 13.7543 17.5218 13.8697C16.9592 13.985 16.4429 14.2629 16.0368 14.6688L14.3957 16.3099C14.3232 16.3824 14.2415 16.3909 14.1919 16.376C12.6418 15.9028 11.2316 15.0561 10.0855 13.9103C8.93944 12.7646 8.09246 11.355 7.61907 9.80533C7.6036 9.7552 7.61213 9.6736 7.68469 9.60107L9.3263 7.96053C9.73235 7.55456 10.0103 7.03841 10.1257 6.47604C10.2411 5.91367 10.1889 5.3298 9.97559 4.7968L8.65995 1.5088C8.48177 1.06343 8.17419 0.681654 7.77688 0.412717C7.37957 0.143781 6.91076 2.64689e-05 6.43094 0C2.50163 0 -0.059763 3.12587 0.00105858 6.9632Z" fill="#ED5F40"/>
</svg>
