<svg width="20" height="20" viewBox="0 0 20 20" fill="none" xmlns="http://www.w3.org/2000/svg">
<path d="M18.0018 15.1277L11.2672 0.825759C11.0967 0.467178 10.7434 0.230926 10.3468 0.210407C9.94941 0.183779 9.57016 0.380386 9.36285 0.720509L2.05841 12.5513C1.83165 12.916 1.83642 13.3789 2.07065 13.7389L5.64185 19.2692C5.91933 19.6956 6.4442 19.8886 6.93179 19.7436L17.2954 16.6781C17.6111 16.5858 17.8713 16.3611 18.0086 16.0623C18.1441 15.7648 18.1413 15.4233 18.0018 15.1277ZM16.494 15.7411L7.69989 18.3416C7.43162 18.4213 7.17412 18.1888 7.22993 17.9181L10.3718 2.87401C10.4306 2.59251 10.8192 2.54797 10.9421 2.8084L16.7584 15.1595C16.8104 15.2709 16.811 15.3995 16.7601 15.5114C16.7091 15.6233 16.6122 15.7072 16.494 15.7411Z" fill="black"/>
</svg>
