<svg width="297" height="195" viewBox="0 0 297 195" fill="none" xmlns="http://www.w3.org/2000/svg">
<path d="M158.5 5C167 15.4999 155.062 0.685102 157.5 8C162.124 1.89037 158.172 15.436 157.5 8C156.314 8.79343 157.209 27.241 156 28.0003C153.359 30.2049 156.727 13.071 156 16.4839C155.748 20.255 152.968 18.2211 153 22.0003C152.984 23.3087 160.017 14.6522 160 16.0003C159.965 19.2214 153.5 7.00029 158.669 1.53337C159.494 1.52227 160.319 1.51116 161.17 1.49972C168.995 1.39902 176.82 1.32315 184.645 1.27431C188.668 1.24835 192.689 1.21322 196.711 1.15617C200.601 1.10134 204.491 1.07184 208.382 1.05898C209.857 1.04983 211.332 1.03197 212.807 1.00472C224.413 0.799037 235.358 2.43896 244.142 10.7287C249.597 17.1751 253.907 24.7095 253.936 33.255C253.949 34.9684 253.949 34.9684 253.962 36.7164C253.961 38.5827 253.961 38.5827 253.959 40.4868C253.966 41.8045 253.973 43.1222 253.98 44.4798C253.997 48.0897 254.002 51.6995 254.003 55.3095C254.005 57.5695 254.009 59.8294 254.014 62.0894C254.033 69.9876 254.041 77.8857 254.04 85.784C254.038 93.1225 254.059 100.461 254.091 107.799C254.117 114.116 254.128 120.433 254.127 126.75C254.126 130.515 254.132 134.28 254.153 138.046C254.173 141.594 254.172 145.142 254.158 148.69C254.155 150.594 254.171 152.498 254.189 154.402C254.103 166.241 251.537 175.82 243.173 184.404C236.155 190.371 227.332 193.769 218.144 193.808C216.849 193.817 215.554 193.827 214.219 193.838C212.796 193.839 211.373 193.839 209.95 193.84C208.441 193.847 206.933 193.856 205.424 193.865C201.335 193.887 197.246 193.896 193.157 193.901C190.597 193.904 188.038 193.911 185.479 193.918C176.537 193.942 167.595 193.955 158.652 193.959C150.34 193.963 142.027 193.992 133.715 194.034C126.561 194.069 119.408 194.084 112.254 194.085C107.989 194.086 103.725 194.095 99.4597 194.123C95.4425 194.149 91.426 194.151 87.4087 194.135C85.9431 194.134 84.4774 194.14 83.0118 194.156C70.4213 194.286 59.9517 191.816 50.6455 182.916C44.5612 175.581 41.5634 167.362 41.5218 157.919C41.5146 156.8 41.5075 155.682 41.5001 154.53C41.4961 152.703 41.4961 152.703 41.4919 150.839C41.4854 149.549 41.4788 148.259 41.472 146.93C41.4511 142.66 41.4406 138.39 41.4307 134.119C41.4266 132.644 41.4225 131.17 41.4183 129.695C41.3993 122.763 41.385 115.831 41.3767 108.899C41.3669 100.919 41.3406 92.9403 41.3002 84.9612C41.27 78.7792 41.2552 72.5974 41.2519 66.4154C41.2496 62.73 41.2408 59.0451 41.2155 55.3599C41.1877 51.2409 41.192 47.1226 41.199 43.0036C41.1862 41.798 41.1734 40.5924 41.1602 39.3503C41.2317 27.647 44.1317 19.1452 52.2979 10.6974C59.2354 4.36559 66.1892 1.27154 75.6841 1.30632C76.6949 1.30588 76.6949 1.30588 77.7261 1.30543C79.9338 1.30682 82.1411 1.32233 84.3486 1.33806C85.8871 1.34179 87.4255 1.34464 88.9639 1.34663C92.9982 1.35424 97.0324 1.37387 101.067 1.39604C105.189 1.41656 109.312 1.42565 113.435 1.43571C121.513 1.45711 150.591 1.49227 158.669 1.53337C156.5 7.00029 142 30.5203 142 21.0003C142 21.0003 130.7 24.1635 129 23.4835C124.16 18.5343 113.144 96.7464 120 27.4836C120.174 20.9445 158.509 50.8933 163 46.0003C170.252 39.8262 149.427 1.39975 158.5 5Z" fill="white"/>
<path d="M30.6691 47.5332C30.6691 80.5332 30.6691 113.533 30.6691 147.533C21.0742 146.467 14.5001 144.924 7.79408 137.846C1.39001 129.554 0.0562681 121.371 0.102676 111.096C0.0964778 109.935 0.0902792 108.774 0.0838928 107.578C0.0768267 105.138 0.0799121 102.697 0.0926666 100.257C0.106545 96.5434 0.0723929 92.8324 0.034317 89.1191C0.0333658 86.7363 0.035225 84.3535 0.0401764 81.9707C0.0269182 80.8725 0.01366 79.7743 0 78.6428C0.109632 69.4748 2.75872 62.645 8.79408 55.7207C15.287 49.7381 21.9535 47.5332 30.6691 47.5332Z" fill="white"/>
<path d="M265.669 48.5332C275.533 48.5332 279.392 49.7317 286.481 56.0332C287.203 56.8582 287.925 57.6832 288.669 58.5332C289.37 59.2757 290.071 60.0182 290.794 60.7832C295.643 67.8954 296.118 75.4215 296.067 83.8145C296.07 84.868 296.073 85.9215 296.076 87.007C296.078 89.2223 296.073 91.4376 296.06 93.6528C296.044 97.0235 296.06 100.393 296.079 103.764C296.077 105.926 296.073 108.089 296.067 110.252C296.076 111.748 296.076 111.748 296.086 113.274C295.989 122.997 293.777 131.135 286.95 138.35C280.391 144.583 274.672 146.533 265.669 146.533C265.669 114.193 265.669 81.8532 265.669 48.5332Z" fill="white"/>
<path d="M115.976 136.372C116.729 136.367 117.483 136.362 118.258 136.357C120.756 136.342 123.253 136.335 125.751 136.33C127.485 136.324 129.219 136.318 130.952 136.312C134.592 136.302 138.231 136.296 141.87 136.293C146.531 136.287 151.191 136.263 155.852 136.235C159.435 136.216 163.018 136.211 166.602 136.209C168.32 136.206 170.038 136.198 171.756 136.185C174.162 136.168 176.567 136.17 178.973 136.176C179.681 136.167 180.389 136.158 181.119 136.148C185.481 136.185 188.185 136.889 191.669 139.533C194.006 142.435 194.633 144.256 195.106 147.97C194.577 152.275 193.495 154.26 190.669 157.533C186.074 160.35 182.565 160.921 177.214 160.969C176.493 160.979 175.771 160.989 175.028 160.999C172.66 161.027 170.291 161.033 167.922 161.037C166.266 161.046 164.61 161.056 162.954 161.067C159.488 161.085 156.023 161.09 152.557 161.089C148.127 161.088 143.699 161.129 139.269 161.181C135.85 161.214 132.432 161.22 129.013 161.219C127.38 161.222 125.747 161.236 124.115 161.259C109.775 161.444 109.775 161.444 105.176 157.615C101.761 153.418 101.275 151.14 101.309 145.861C101.914 141.943 103.837 140.229 106.669 137.533C109.651 136.041 112.705 136.377 115.976 136.372Z" fill="#ED5F40"/>
<path d="M111.063 56.1463C115.542 58.0902 118.47 60.8478 120.817 65.1267C122.768 70.6383 122.807 76.4453 120.782 81.9392C117.473 87.8324 113.021 90.4155 106.669 92.533C101.053 92.9012 97.4751 92.7719 92.6689 89.533C88.0083 84.9169 84.4146 80.5484 84.2314 73.783C84.3455 68.2608 86.1276 64.6998 89.6689 60.533C96.0135 54.7786 102.727 54.0111 111.063 56.1463Z" fill="#ED5F40"/>
<path d="M201.044 56.5953C204.999 59.5143 208.455 63.105 210.669 67.5328C211.587 74.9753 211.173 80.6563 206.501 86.6851C202.296 90.9264 197.993 92.7103 192.044 92.9703C185.541 92.6245 181.269 89.7084 176.927 85.0601C173.579 80.9944 173.275 76.9001 173.427 71.8023C174.016 66.2828 176.149 62.7389 180.232 59.1578C186.313 54.2669 193.676 54.2757 201.044 56.5953Z" fill="#ED5F40"/>
<rect x="76" y="2" width="105" height="48" fill="white"/>
</svg>
