<svg width="256" height="184" viewBox="0 0 256 184" fill="none" xmlns="http://www.w3.org/2000/svg">
<g clip-path="url(#clip0_31937_21)">
<path d="M137.512 0.91392C141.896 3.50265 145.168 6.79516 148 10.9999C148.392 12.9892 148.734 14.9897 149 16.9999C150.091 16.9865 150.091 16.9865 151.204 16.9729C158.102 16.8923 165 16.8317 171.899 16.7926C175.445 16.7719 178.99 16.7438 182.535 16.6981C186.624 16.6458 190.712 16.6268 194.801 16.6092C196.056 16.5886 197.312 16.5679 198.606 16.5467C210.576 16.5437 220.354 19.452 229 27.9999C238.782 39.4949 239.449 49.5253 239 63.9999C239.58 64.1352 240.16 64.2706 240.758 64.41C246.949 66.1163 250.582 68.5089 254 73.9999C256.314 78.5639 256.338 82.7334 256.371 87.7381C256.38 88.5777 256.389 89.4173 256.398 90.2824C256.413 92.0549 256.422 93.8276 256.425 95.6002C256.437 98.2936 256.486 100.985 256.537 103.678C256.546 105.406 256.554 107.135 256.558 108.863C256.578 109.659 256.598 110.455 256.618 111.276C256.564 118.035 254.106 122.63 249.557 127.565C246.167 130.677 243.456 131.411 239 132C239.046 133.099 239.093 134.199 239.14 135.332C239.51 147.724 238.163 157.187 229.91 167C222.078 175.2 212.277 179.646 200.921 180.131C199.821 180.134 198.722 180.137 197.589 180.14C195.684 180.149 195.684 180.149 193.741 180.158C192.346 180.159 190.951 180.16 189.556 180.161C188.077 180.166 186.598 180.171 185.119 180.176C181.111 180.189 177.102 180.196 173.093 180.2C170.584 180.203 168.075 180.207 165.566 180.212C157.702 180.225 149.839 180.235 141.975 180.239C132.922 180.243 123.87 180.261 114.818 180.29C107.805 180.311 100.791 180.321 93.7779 180.323C89.5969 180.324 85.416 180.33 81.235 180.348C77.2967 180.364 73.3587 180.366 69.4204 180.357C67.9838 180.357 66.5472 180.361 65.1106 180.371C51.0813 180.462 38.4103 178.726 27.7421 168.926C21.4339 162.257 16.8311 154.273 16.9022 144.89C16.9054 144.136 16.9087 143.382 16.912 142.605C16.9204 141.828 16.9287 141.051 16.9374 140.25C16.9419 139.457 16.9464 138.664 16.951 137.848C16.9628 135.898 16.9807 133.949 16.9999 132C16.0962 131.901 15.1926 131.801 14.2616 131.699C10.8042 130.958 9.39601 130.148 6.81236 127.812C6.15881 127.241 5.50525 126.67 4.83189 126.082C0.172941 120.787 -0.458572 115.908 -0.433731 109.164C-0.438973 108.326 -0.444215 107.488 -0.449615 106.624C-0.456015 104.857 -0.454725 103.091 -0.446182 101.324C-0.437684 98.6397 -0.466441 95.9575 -0.498184 93.2733C-0.499797 91.5493 -0.499217 89.8254 -0.496231 88.1014C-0.507465 87.3085 -0.518699 86.5155 -0.530273 85.6985C-0.453241 79.4508 1.16418 74.2358 5.34094 69.4695C8.89705 66.2198 12.4327 65.1998 16.9999 63.9999C16.9535 62.9003 16.9071 61.8007 16.8592 60.6678C16.4935 48.3957 17.7827 38.8117 25.953 29.0702C33.8354 21.0975 42.1968 16.9235 53.3334 16.8043C56.5584 16.816 59.7765 16.8931 62.9999 16.9999C63.4949 18.9799 63.4949 18.9799 63.9999 20.9999C66.6399 20.9999 69.2799 20.9999 71.9999 20.9999C72.6599 19.6799 73.3199 18.3599 73.9999 16.9999C84.8899 16.9999 95.7799 16.9999 107 16.9999C107.33 15.0199 107.66 13.0399 108 10.9999C109.418 8.76939 109.418 8.76939 111.187 6.81236C111.758 6.1588 112.329 5.50525 112.918 4.83189C119.638 -1.08104 129.148 -2.1297 137.512 0.91392Z" fill="#ED5F40"/>
<path d="M69.1833 45.4821C70.61 45.4766 72.0366 45.4695 73.4632 45.4608C77.3186 45.4427 81.1736 45.4496 85.0291 45.4623C89.0746 45.4725 93.12 45.4631 97.1655 45.4568C103.958 45.4495 110.75 45.4591 117.542 45.4782C125.381 45.4999 133.219 45.4929 141.059 45.4709C147.804 45.4527 154.549 45.4502 161.294 45.4606C165.316 45.4668 169.338 45.4677 173.36 45.4545C177.142 45.4429 180.924 45.451 184.707 45.474C186.09 45.4793 187.474 45.4779 188.857 45.469C196.645 45.4237 202.408 45.6422 209 49.9996C213.328 55.4371 214.152 59.7091 214.193 66.4652C214.205 67.6024 214.205 67.6024 214.217 68.7626C214.242 71.2726 214.259 73.7825 214.273 76.2926C214.279 77.1514 214.284 78.0103 214.289 78.8951C214.316 83.4431 214.335 87.991 214.35 92.5389C214.363 96.2957 214.391 100.052 214.432 103.808C214.481 108.351 214.506 112.893 214.513 117.435C214.52 119.162 214.535 120.888 214.559 122.615C214.771 138.823 214.771 138.823 210.759 144.49C203.481 150.736 197.05 150.581 187.746 150.533C186.3 150.54 184.854 150.549 183.408 150.559C179.494 150.582 175.581 150.579 171.668 150.57C168.395 150.565 165.122 150.572 161.85 150.579C154.126 150.596 146.402 150.593 138.679 150.576C130.723 150.559 122.768 150.575 114.813 150.607C107.97 150.634 101.127 150.641 94.2846 150.633C90.2032 150.628 86.1221 150.63 82.0406 150.651C78.2015 150.669 74.3631 150.663 70.524 150.638C69.1196 150.633 67.7151 150.637 66.3107 150.65C53.1262 150.759 53.1262 150.759 47.5389 146.524C43.3524 142.377 41.5602 138.137 41.4465 132.141C41.4531 131.43 41.4596 130.72 41.4663 129.988C41.4577 129.22 41.4491 128.451 41.4402 127.66C41.4176 125.138 41.4243 122.618 41.4333 120.097C41.4281 118.333 41.4218 116.568 41.4146 114.804C41.4042 111.113 41.4087 107.422 41.4233 103.731C41.4405 99.0158 41.417 94.3015 41.3818 89.5861C41.3598 85.9442 41.3613 82.3026 41.3696 78.6607C41.3704 76.9228 41.3636 75.185 41.3488 73.4472C41.2259 56.3784 41.2259 56.3784 45.3861 51.5634C52.2109 44.9497 60.2776 45.425 69.1833 45.4821Z" fill="#FDFDFD"/>
<path d="M137.512 0.91392C141.896 3.50265 145.168 6.79516 148 10.9999C148.392 12.9892 148.734 14.9897 149 16.9999C150.091 16.9865 150.091 16.9865 151.204 16.9729C158.102 16.8923 165 16.8317 171.899 16.7926C175.445 16.7719 178.99 16.7438 182.535 16.6981C186.624 16.6458 190.712 16.6268 194.801 16.6092C196.056 16.5886 197.312 16.5679 198.606 16.5467C210.576 16.5437 220.354 19.452 229 27.9999C238.782 39.4949 239.449 49.5253 239 63.9999C239.58 64.1352 240.16 64.2706 240.758 64.41C246.949 66.1163 250.582 68.5089 254 73.9999C256.314 78.5639 256.338 82.7334 256.371 87.7381C256.38 88.5777 256.389 89.4173 256.398 90.2824C256.413 92.0549 256.422 93.8276 256.425 95.6002C256.437 98.2936 256.486 100.985 256.537 103.678C256.546 105.406 256.554 107.135 256.558 108.863C256.578 109.659 256.598 110.455 256.618 111.276C256.564 118.035 254.106 122.63 249.557 127.565C246.167 130.677 243.456 131.411 239 132C239.046 133.099 239.093 134.199 239.14 135.332C239.51 147.724 238.163 157.187 229.91 167C222.078 175.2 212.277 179.646 200.921 180.131C199.821 180.134 198.722 180.137 197.589 180.14C195.684 180.149 195.684 180.149 193.741 180.158C192.346 180.159 190.951 180.16 189.556 180.161C188.077 180.166 186.598 180.171 185.119 180.176C181.111 180.189 177.102 180.196 173.093 180.2C170.584 180.203 168.075 180.207 165.566 180.212C157.702 180.225 149.839 180.235 141.975 180.239C132.922 180.243 123.87 180.261 114.818 180.29C107.805 180.311 100.791 180.321 93.7779 180.323C89.5969 180.324 85.416 180.33 81.235 180.348C77.2967 180.364 73.3587 180.366 69.4204 180.357C67.9838 180.357 66.5472 180.361 65.1106 180.371C51.0813 180.462 38.4103 178.726 27.7421 168.926C21.4339 162.257 16.8311 154.273 16.9022 144.89C16.9054 144.136 16.9087 143.382 16.912 142.605C16.9204 141.828 16.9287 141.051 16.9374 140.25C16.9419 139.457 16.9464 138.664 16.951 137.848C16.9628 135.898 16.9807 133.949 16.9999 132C16.0962 131.901 15.1926 131.801 14.2616 131.699C10.8042 130.958 9.39601 130.148 6.81236 127.812C6.15881 127.241 5.50525 126.67 4.83189 126.082C0.172941 120.787 -0.458572 115.908 -0.433731 109.164C-0.438973 108.326 -0.444215 107.488 -0.449615 106.624C-0.456015 104.857 -0.454725 103.091 -0.446182 101.324C-0.437684 98.6397 -0.466441 95.9575 -0.498184 93.2733C-0.499797 91.5493 -0.499217 89.8254 -0.496231 88.1014C-0.507465 87.3085 -0.518699 86.5155 -0.530273 85.6985C-0.453241 79.4508 1.16418 74.2358 5.34094 69.4695C8.89705 66.2198 12.4327 65.1998 16.9999 63.9999C16.9535 62.9003 16.9071 61.8007 16.8592 60.6678C16.4935 48.3957 17.7827 38.8117 25.953 29.0702C33.8354 21.0975 42.1968 16.9235 53.3334 16.8043C56.5584 16.816 59.7765 16.8931 62.9999 16.9999C63.9999 19.9999 63.9999 19.9999 63.0428 22.621C60.6303 25.4302 59.0726 25.6601 55.453 25.9454C54.7466 25.984 54.0402 26.0226 53.3124 26.0624C42.8491 27.0404 37.8365 29.5578 30.7616 37.2928C26.3697 44.0413 25.5553 51.0605 25.5958 58.9508C25.5855 60.3771 25.5855 60.3771 25.575 61.8322C25.5568 64.9494 25.5606 68.0662 25.5663 71.1834C25.5617 73.3662 25.5564 75.549 25.5504 77.7318C25.5415 82.2969 25.5439 86.8618 25.5538 91.4269C25.5653 97.2584 25.5451 103.089 25.5159 108.921C25.4975 113.426 25.4978 117.931 25.5035 122.436C25.5037 124.585 25.4977 126.734 25.4852 128.883C25.4703 131.896 25.4811 134.907 25.4982 137.92C25.4885 138.795 25.4788 139.671 25.4689 140.573C25.5575 148.09 27.8145 154.302 31.6249 160.75C38.4196 167.187 45.2505 170.113 54.4878 170.147C55.1375 170.151 55.7873 170.154 56.4567 170.158C58.6321 170.169 60.8074 170.173 62.9828 170.177C64.5435 170.183 66.1042 170.19 67.6649 170.197C72.7895 170.218 77.9142 170.228 83.0389 170.238C84.8057 170.242 86.5724 170.246 88.3391 170.25C96.6418 170.27 104.945 170.284 113.247 170.292C122.818 170.302 132.389 170.328 141.959 170.369C149.365 170.399 156.771 170.414 164.176 170.417C168.596 170.419 173.014 170.428 177.433 170.453C181.595 170.477 185.756 170.481 189.918 170.471C191.439 170.47 192.96 170.476 194.482 170.49C204.407 170.575 212.267 169.567 220.812 164.25C228.442 156.403 230.304 147.962 230.275 137.352C230.28 136.409 230.285 135.467 230.29 134.496C230.304 131.396 230.303 128.296 230.301 125.195C230.305 123.03 230.309 120.864 230.314 118.698C230.321 114.164 230.321 109.63 230.316 105.096C230.31 99.3003 230.327 93.5049 230.35 87.7092C230.365 83.2378 230.365 78.7664 230.362 74.295C230.363 72.1589 230.368 70.0228 230.378 67.8867C230.391 64.8931 230.384 61.9002 230.372 58.9066C230.38 58.0336 230.387 57.1606 230.395 56.2611C230.315 46.7458 227.746 39.866 221.191 32.9491C215.438 27.8319 209.165 25.8821 201.566 25.8618C200.462 25.8564 199.359 25.8509 198.222 25.8453C197.016 25.8443 195.81 25.8432 194.568 25.8421C192.613 25.8343 190.658 25.8265 188.704 25.8186C186.605 25.8109 184.507 25.8055 182.408 25.8006C178.034 25.7899 173.66 25.7697 169.286 25.7475C156.849 25.6856 144.413 25.6315 131.976 25.5985C125.105 25.5802 118.234 25.5513 111.363 25.5105C107.727 25.4894 104.091 25.474 100.455 25.4717C96.4042 25.4691 92.3535 25.4437 88.3024 25.4164C86.4905 25.4209 86.4905 25.4209 84.6421 25.4255C82.9912 25.4088 82.9912 25.4088 81.307 25.3919C80.3489 25.3885 79.3908 25.3852 78.4037 25.3818C75.555 24.9292 74.6974 24.2935 72.9999 21.9999C72.5049 20.5149 72.5049 20.5149 71.9999 18.9999C73.9999 16.9999 73.9999 16.9999 77.2562 16.7728C78.6422 16.7731 80.0281 16.7844 81.4139 16.8045C82.1436 16.8074 82.8732 16.8102 83.625 16.8131C85.9584 16.8243 88.2915 16.8494 90.6249 16.8749C92.2056 16.8849 93.7863 16.894 95.3671 16.9022C99.2448 16.9243 103.122 16.9588 107 16.9999C107.136 16.0559 107.271 15.1119 107.411 14.1393C108.054 10.7091 108.878 9.36589 111.187 6.81236C111.758 6.1588 112.329 5.50525 112.918 4.83189C119.638 -1.08104 129.148 -2.1297 137.512 0.91392Z" fill="#363636"/>
<path d="M69.9685 38.5957C71.3721 38.59 72.7758 38.583 74.1794 38.5749C77.973 38.557 81.7663 38.5581 85.5598 38.5638C88.7356 38.5669 91.9112 38.5608 95.087 38.5548C102.584 38.5408 110.081 38.5423 117.578 38.5537C125.292 38.5652 133.006 38.5511 140.72 38.5243C147.361 38.5021 154.002 38.4955 160.644 38.5014C164.602 38.5047 168.561 38.5024 172.519 38.4851C176.244 38.4696 179.969 38.4737 183.694 38.4924C185.698 38.4978 187.702 38.4837 189.706 38.4688C199.988 38.5521 207.992 40.3481 215.43 47.7302C221.757 56.8741 221.591 65.8955 221.531 76.6248C221.534 78.3391 221.538 80.0535 221.543 81.7678C221.549 85.3485 221.54 88.9289 221.522 92.5095C221.499 97.079 221.512 101.648 221.536 106.217C221.55 109.753 221.546 113.29 221.535 116.826C221.533 118.51 221.536 120.194 221.545 121.878C221.618 138.684 221.618 138.684 217 146C216.443 146.907 215.886 147.815 215.313 148.75C209.675 154.236 202.964 157.116 195.157 157.147C193.328 157.158 193.328 157.158 191.462 157.169C190.108 157.171 188.754 157.174 187.4 157.177C185.976 157.183 184.552 157.19 183.127 157.197C178.447 157.218 173.767 157.228 169.086 157.238C167.473 157.242 165.86 157.246 164.247 157.25C156.667 157.269 149.087 157.284 141.507 157.292C132.767 157.302 124.027 157.328 115.287 157.368C108.526 157.399 101.765 157.413 95.0038 157.417C90.9686 157.419 86.9338 157.428 82.8987 157.453C79.0983 157.477 75.2983 157.481 71.4979 157.47C70.1084 157.47 68.7189 157.476 67.3295 157.49C57.7868 157.579 51.3398 156.276 43.2502 151.312C37.2345 145.129 34.8586 138.118 34.8073 129.658C34.7992 128.913 34.791 128.167 34.7826 127.4C34.7577 124.932 34.7412 122.464 34.7268 119.996C34.7214 119.151 34.7161 118.305 34.7106 117.434C34.6839 112.955 34.6645 108.477 34.6501 103.998C34.6368 100.303 34.609 96.6089 34.5681 92.9146C34.5185 88.4436 34.494 83.9731 34.4869 79.5019C34.4802 77.8048 34.4651 76.1076 34.441 74.4106C34.3012 63.9564 34.4957 54.9713 41.961 46.8725C50.2064 38.8114 58.9675 38.5577 69.9685 38.5957ZM44.0417 53.1248C40.3196 59.9128 41.2854 68.4763 41.3361 75.9998C41.3328 77.7628 41.3279 79.5258 41.3216 81.2888C41.3143 84.9739 41.3249 88.6585 41.3483 92.3435C41.3768 97.0512 41.3604 101.757 41.3305 106.465C41.3124 110.103 41.3182 113.74 41.3311 117.378C41.3344 119.113 41.3304 120.848 41.3187 122.583C40.9654 134.1 40.9654 134.1 45.2462 144.492C52.516 150.741 58.9562 150.581 68.2539 150.533C69.7 150.54 71.1462 150.549 72.5924 150.559C76.5057 150.582 80.4186 150.579 84.332 150.57C87.6048 150.565 90.8775 150.572 94.1503 150.579C101.874 150.596 109.598 150.593 117.321 150.576C125.277 150.559 133.232 150.575 141.187 150.607C148.03 150.634 154.873 150.641 161.715 150.633C165.797 150.628 169.878 150.63 173.959 150.651C177.798 150.669 181.637 150.663 185.476 150.638C186.88 150.633 188.285 150.637 189.689 150.65C199.688 150.783 199.688 150.783 208.461 146.525C212.626 142.398 214.441 138.174 214.542 132.204C214.534 131.503 214.526 130.802 214.518 130.08C214.525 129.321 214.532 128.563 214.539 127.781C214.557 125.292 214.545 122.805 214.531 120.316C214.534 118.574 214.538 116.832 214.543 115.09C214.549 111.446 214.54 107.803 214.522 104.159C214.499 99.5038 214.512 94.8499 214.536 90.1951C214.55 86.5995 214.546 83.0042 214.535 79.4086C214.533 77.6931 214.536 75.9776 214.545 74.2621C214.828 61.9932 214.828 61.9932 210 50.9998C205.056 47.0645 201.375 45.8776 195.151 45.8526C193.319 45.8419 193.319 45.8419 191.45 45.8309C190.095 45.8281 188.74 45.8254 187.384 45.8228C185.958 45.8165 184.532 45.8098 183.107 45.8028C178.421 45.7818 173.736 45.7714 169.051 45.7615C167.437 45.7574 165.823 45.7533 164.209 45.7491C156.623 45.7301 149.038 45.7158 141.453 45.7075C132.705 45.6977 123.957 45.6714 115.208 45.631C108.442 45.6008 101.676 45.586 94.9097 45.5827C90.8707 45.5804 86.8319 45.5715 82.7929 45.5463C78.9901 45.5229 75.1877 45.5188 71.3848 45.529C69.9933 45.5295 68.6017 45.5232 67.2103 45.5095C57.9631 45.4232 50.455 45.6934 44.0417 53.1248Z" fill="#3A3A3A"/>
<path d="M94.9258 60.4919C101.053 64.9463 104.724 70.4886 106 77.9997C106.286 85.6653 104.387 92.1838 99.2734 97.9451C94.0705 102.899 88.7517 105.83 81.4883 106.09C73.5712 105.617 67.7019 103.085 62.1875 97.3747C57.693 91.8312 55.6223 85.6484 55.9375 78.4997C57.0218 72.0508 60.2554 66.4156 65.1523 62.1052C75.0338 55.1628 84.5474 54.1526 94.9258 60.4919Z" fill="#ED5F40"/>
<path d="M192 62.9998C197.165 68.8675 200.348 75.3748 200 83.3123C199.032 90.0415 195.303 95.754 190.5 100.437C189.675 100.953 188.85 101.469 188 102C187.113 102.557 186.226 103.114 185.313 103.687C178.535 106.373 172.014 106.814 165.168 104.137C158.372 100.573 153.338 95.3578 151 87.9998C149.408 81.1664 149.717 75.2617 153 68.9998C157.553 62.2364 162.809 58.7301 170.438 56.1873C178.938 55.5653 185.323 57.57 192 62.9998Z" fill="#ED5F40"/>
<path d="M111.101 106.839C111.922 106.83 112.743 106.82 113.59 106.81C114.916 106.804 114.916 106.804 116.27 106.797C117.64 106.789 117.64 106.789 119.038 106.78C120.973 106.77 122.907 106.764 124.841 106.76C127.791 106.75 130.74 106.719 133.689 106.688C135.57 106.681 137.451 106.676 139.332 106.672C140.21 106.66 141.089 106.647 141.994 106.635C147.068 106.653 150.636 107.114 155 110C157 113 157 113 156.875 116.188C154.831 125.095 150.565 130.788 143 136C134.526 140.285 127.574 141.3 118.562 138.5C111.25 135.616 105.279 130.914 101.5 123.938C99.9605 120.286 98.9243 117.009 99 113C102.527 108.493 105.469 106.892 111.101 106.839Z" fill="#3D3C3C"/>
<path d="M94.9258 60.4919C101.053 64.9463 104.724 70.4886 106 77.9997C106.286 85.6653 104.387 92.1838 99.2734 97.9451C94.0705 102.899 88.7517 105.83 81.4883 106.09C73.5712 105.617 67.7019 103.085 62.1875 97.3747C57.693 91.8312 55.6223 85.6484 55.9375 78.4997C57.0218 72.0508 60.2554 66.4156 65.1523 62.1052C75.0338 55.1628 84.5474 54.1526 94.9258 60.4919ZM67.125 68.8122C63.298 74.5528 62.5832 78.8526 63.4648 85.6013C64.5835 90.6149 67.0505 93.2828 71.0625 96.3122C75.7011 98.977 79.727 99.5338 85 98.9997C90.1939 97.3271 93.5483 95.2403 97 90.9997C99.4234 85.8067 100.115 80.3155 98.2773 74.8513C95.7391 69.3228 92.7439 66.1674 87.0625 63.7497C79.7663 61.9629 72.3046 62.9909 67.125 68.8122Z" fill="#3D3C3C"/>
<path d="M192 62.9998C197.165 68.8675 200.348 75.3748 200 83.3123C199.032 90.0415 195.303 95.754 190.5 100.437C189.675 100.953 188.85 101.469 188 102C187.113 102.557 186.226 103.114 185.313 103.687C178.535 106.373 172.014 106.814 165.168 104.137C158.372 100.573 153.338 95.3578 151 87.9998C149.408 81.1664 149.717 75.2617 153 68.9998C157.553 62.2364 162.809 58.7301 170.438 56.1873C178.938 55.5653 185.323 57.57 192 62.9998ZM162.465 67.3631C158.255 72.1125 156.495 76.5196 156.688 82.8826C157.467 88.1649 160.027 92.4281 164 95.9373C168.769 99.2161 173.233 99.752 179 98.9998C184.26 97.2465 188.039 94.7831 191 89.9998C193.596 84.6835 193.262 79.6541 192 73.9998C189.583 69.1662 186.834 66.4166 182 63.9998C175.009 62.2872 168.068 62.3873 162.465 67.3631Z" fill="#3C3B3B"/>
<path d="M106 114C120.52 114 135.04 114 150 114C148.78 122.542 148.78 122.542 145 127C137.574 132.555 131.226 133.81 122 133C115.582 131.304 110.337 126.679 107 121C106.67 118.69 106.34 116.38 106 114Z" fill="#ED5F40"/>
<path d="M238 73C243.036 74.0072 243.895 74.3405 247 78C248.558 81.1162 248.205 84.4366 248.238 87.8594C248.25 89.0324 248.25 89.0324 248.263 90.2291C248.277 91.8867 248.287 93.5444 248.295 95.2021C248.312 97.7265 248.356 100.249 248.4 102.773C248.411 104.385 248.419 105.997 248.426 107.609C248.443 108.36 248.461 109.11 248.479 109.883C248.458 115.053 247.529 118.186 244 122C241.03 122.495 241.03 122.495 238 123C238 106.5 238 90 238 73Z" fill="#ED5F40"/>
<path d="M17.9997 73C17.9997 89.5 17.9997 106 17.9997 123C11.9997 122 11.9997 122 9.6557 119.455C7.7242 115.425 7.43725 112.09 7.5036 107.715C7.50215 106.936 7.50069 106.157 7.49919 105.355C7.50084 103.717 7.51233 102.079 7.53314 100.441C7.56215 97.9412 7.55373 95.4434 7.54071 92.9434C7.54695 91.3463 7.55534 89.7493 7.5661 88.1523C7.56316 87.4095 7.56023 86.6667 7.5572 85.9014C7.63805 81.4335 8.22289 78.5379 10.9997 75C13.9997 73 13.9997 73 17.9997 73Z" fill="#ED5F40"/>
<path d="M133 7.99969C136.562 9.62469 136.562 9.62469 139 11.9997C139.33 13.9797 139.66 15.9597 140 17.9997C132.08 17.9997 124.16 17.9997 116 17.9997C117 11.9997 117 11.9997 119.438 9.62469C124.125 7.48673 127.929 7.19432 133 7.99969Z" fill="#ED5F40"/>
</g>
<defs>
<clipPath id="clip0_31937_21">
<rect width="256" height="184" fill="white"/>
</clipPath>
</defs>
</svg>
