<svg width="24" height="24" viewBox="0 0 24 24" fill="none" xmlns="http://www.w3.org/2000/svg">
<path d="M12 4.9502C8.86667 4.9502 6.90833 6.51687 6.125 9.6502C7.3 8.08352 8.67083 7.49602 10.2375 7.8877C11.1314 8.11117 11.7703 8.75965 12.4775 9.47747C13.6295 10.6468 14.9628 12.0002 17.875 12.0002C21.0083 12.0002 22.9667 10.4335 23.75 7.3002C22.575 8.86687 21.2042 9.45437 19.6375 9.0627C18.7436 8.83922 18.1047 8.19077 17.3976 7.47292C16.2455 6.30357 14.9122 4.9502 12 4.9502ZM6.125 12.0002C2.99167 12.0002 1.03333 13.5669 0.25 16.7002C1.425 15.1335 2.79583 14.546 4.3625 14.9377C5.25638 15.1612 5.89528 15.8096 6.60245 16.5275C7.75447 17.6968 9.08778 19.0502 12 19.0502C15.1333 19.0502 17.0917 17.4835 17.875 14.3502C16.7 15.9169 15.3292 16.5044 13.7625 16.1127C12.8686 15.8892 12.2297 15.2408 11.5225 14.5229C10.3705 13.3536 9.03722 12.0002 6.125 12.0002Z" fill="url(#paint0_linear_31354_125)"/>
<defs>
<linearGradient id="paint0_linear_31354_125" x1="-65.0278" y1="456.15" x2="1964.58" y2="1626.38" gradientUnits="userSpaceOnUse">
<stop stop-color="#2298BD"/>
<stop offset="1" stop-color="#0ED7B5"/>
</linearGradient>
</defs>
</svg>
