<svg width="30" height="30" viewBox="0 0 30 30" fill="none" xmlns="http://www.w3.org/2000/svg">
<path fill-rule="evenodd" clip-rule="evenodd" d="M22.8125 0.625C20.7019 0.625 18.9639 2.2835 18.8651 4.39177L18.7834 6.13328C17.5497 6.45581 16.6756 7.4785 16.6038 8.84394C16.5788 9.31819 16.5625 9.90375 16.5625 10.625C16.5625 11.4381 16.5866 12.0806 16.6222 12.5867C16.7271 14.0773 17.8377 15.0985 19.2716 15.206C20.0636 15.2654 21.1992 15.3125 22.8125 15.3125C24.4258 15.3125 25.5614 15.2654 26.3534 15.206C27.7873 15.0985 28.8979 14.0773 29.0028 12.5867C29.0384 12.0806 29.0625 11.4381 29.0625 10.625C29.0625 9.81194 29.0384 9.16944 29.0028 8.66331C28.9101 7.34656 28.0327 6.39606 26.8409 6.11817L26.76 4.39177C26.6612 2.28351 24.9231 0.625 22.8125 0.625ZM24.3304 5.95317L24.2628 4.50882C24.2264 3.7343 23.5879 3.125 22.8125 3.125C22.0371 3.125 21.3986 3.73429 21.3623 4.50882L21.2946 5.95313C21.7471 5.9432 22.2512 5.9375 22.8125 5.9375C23.3746 5.9375 23.8786 5.94322 24.3304 5.95317ZM22.8125 8.75C23.5029 8.75 24.0625 9.30962 24.0625 10V11.25C24.0625 11.9404 23.5029 12.5 22.8125 12.5C22.1221 12.5 21.5625 11.9404 21.5625 11.25V10C21.5625 9.30962 22.1221 8.75 22.8125 8.75ZM1.76682 16.1753C1.09321 16.3808 0.615582 16.9669 0.544699 17.6676C0.440736 18.6953 0.3125 20.2851 0.3125 21.875C0.3125 23.3535 0.423404 24.832 0.522551 25.8584C0.601168 26.6723 1.21889 27.3159 2.02658 27.4429C4.71579 27.8661 10.8509 28.75 15.1813 28.75C18.4552 28.75 25.0129 26.5884 28.0609 25.5175C29.0432 25.1724 29.7692 24.2116 29.4414 23.2232C29.0005 21.8937 28.0626 21.4011 27.4281 21.2186C27.0104 21.0984 26.5745 21.1484 26.1459 21.2212C24.0833 21.5718 17.606 22.6389 15.1813 22.6389C14.0373 22.6389 12.4732 22.4333 11.5652 22.2974C11.1387 22.2337 10.8295 21.8657 10.8295 21.4346C10.8295 20.9172 11.2707 20.5098 11.7864 20.5509L16.7838 20.9496C17.8746 21.0366 18.8332 20.1624 18.5793 19.0979C18.5623 19.0264 18.5445 18.9564 18.5261 18.8879C18.0755 17.2074 16.4845 16.2524 14.7863 15.8747C12.9203 15.4596 10.3152 15 7.92825 15C5.93085 15 3.2459 15.7241 1.76682 16.1753Z" fill="url(#paint0_linear_31303_70)"/>
<defs>
<linearGradient id="paint0_linear_31303_70" x1="32.0525" y1="34.7069" x2="-6.33438" y2="6.38812" gradientUnits="userSpaceOnUse">
<stop stop-color="#FFD600"/>
<stop offset="1" stop-color="#FF007A"/>
</linearGradient>
</defs>
</svg>
