<svg width="44" height="43" viewBox="0 0 44 43" fill="none" xmlns="http://www.w3.org/2000/svg">
<path d="M0 9C0 4.02944 4.02944 0 9 0H44V43H9C4.02944 43 0 38.9706 0 34V9Z" fill="#E23812"/>
<path d="M4 13C4 8.02944 8.02944 4 13 4H44V38H13C8.02944 38 4 33.9706 4 29V13Z" fill="#ED5F40"/>
<path fill-rule="evenodd" clip-rule="evenodd" d="M26.3333 13C26.3333 10.7909 28.2734 9 30.6666 9C33.0599 9 35 10.7909 35 13C35 15.2091 33.0599 17 30.6666 17C29.4582 17 28.3661 16.5432 27.581 15.8082L21.5822 19.5954C21.6376 19.851 21.6667 20.115 21.6667 20.3846C21.6667 20.9186 21.5528 21.4291 21.3465 21.8957L27.9242 25.903C28.6707 25.3393 29.6259 25 30.6666 25C33.0599 25 35 26.7908 35 29C35 31.2091 33.0599 33 30.6666 33C28.2734 33 26.3333 31.2091 26.3333 29C26.3333 28.4214 26.4668 27.8706 26.7069 27.3733L20.1824 23.3984C19.4214 24.0118 18.4244 24.3846 17.3333 24.3846C14.9401 24.3846 13 22.5937 13 20.3846C13 18.1755 14.9401 16.3846 17.3333 16.3846C18.7095 16.3846 19.9346 16.9767 20.7278 17.8982L26.5415 14.2277C26.4063 13.8403 26.3333 13.4275 26.3333 13Z" fill="white"/>
</svg>
