<svg width="22" height="22" viewBox="0 0 22 22" fill="none" xmlns="http://www.w3.org/2000/svg">
<path d="M2.5625 1H19.4375C20.3004 1 21 1.69956 21 2.5625V19.4375C21 20.3004 20.3004 21 19.4375 21H2.5625C1.69956 21 1 20.3004 1 19.4375V2.5625C1 1.69956 1.69956 1 2.5625 1Z" fill="#3178C6"/>
<path d="M12.8953 17.099V19.4232C13.2733 19.6169 13.7204 19.7621 14.2365 19.859C14.7525 19.9558 15.2964 20.0042 15.8683 20.0042C16.4255 20.0042 16.955 19.9509 17.4565 19.8444C17.958 19.7379 18.3979 19.5624 18.7758 19.3179C19.1538 19.0734 19.453 18.7538 19.6735 18.3591C19.894 17.9646 20.0042 17.4768 20.0042 16.8957C20.0042 16.4745 19.9412 16.1053 19.8152 15.7881C19.6893 15.471 19.5075 15.1889 19.27 14.942C19.0327 14.695 18.7479 14.4736 18.416 14.2774C18.0841 14.0814 17.7097 13.8962 17.2929 13.7219C16.9876 13.5959 16.7139 13.4737 16.4716 13.3551C16.2293 13.2364 16.0233 13.1154 15.8538 12.9919C15.6841 12.8685 15.5533 12.7377 15.4612 12.5997C15.3692 12.4617 15.3231 12.3056 15.3231 12.1313C15.3231 11.9715 15.3643 11.8275 15.4467 11.6992C15.529 11.5708 15.6454 11.4607 15.7956 11.3687C15.9458 11.2766 16.1299 11.2053 16.348 11.1544C16.566 11.1036 16.8084 11.0781 17.0749 11.0781C17.2688 11.0781 17.4735 11.0927 17.6891 11.1217C17.9047 11.1508 18.1216 11.1955 18.3397 11.2561C18.5577 11.3166 18.7697 11.3929 18.9757 11.4849C19.1816 11.5769 19.3719 11.6834 19.5463 11.8044V9.63284C19.1926 9.49728 18.8061 9.39679 18.3869 9.33141C17.9678 9.26603 17.4868 9.2334 16.9441 9.2334C16.3916 9.2334 15.8683 9.29271 15.374 9.41137C14.8797 9.52992 14.4448 9.71513 14.0693 9.96689C13.6937 10.2187 13.3969 10.5395 13.1788 10.9293C12.9608 11.3191 12.8517 11.7851 12.8517 12.3274C12.8517 13.0198 13.0516 13.6105 13.4514 14.0995C13.8512 14.5885 14.4581 15.0025 15.2722 15.3415C15.5921 15.4722 15.8901 15.6005 16.1663 15.7264C16.4425 15.8523 16.6812 15.983 16.8823 16.1185C17.0834 16.2541 17.2421 16.4018 17.3584 16.5616C17.4747 16.7214 17.5328 16.903 17.5328 17.1064C17.5328 17.2564 17.4965 17.3957 17.4238 17.524C17.3512 17.6522 17.2408 17.7636 17.0931 17.858C16.9453 17.9525 16.7611 18.0263 16.5407 18.0795C16.3202 18.1328 16.0621 18.1595 15.7665 18.1595C15.2625 18.1595 14.7635 18.0711 14.2692 17.8943C13.7748 17.7176 13.3169 17.4526 12.8953 17.099ZM9.02152 11.3154H12.0102V9.40168H3.67969V11.3154H6.65384V19.8359H9.02152V11.3154Z" fill="white"/>
</svg>
