<svg width="24" height="45" viewBox="0 0 24 45" fill="none" xmlns="http://www.w3.org/2000/svg">
<path d="M8.77155 15.3238C8.76073 16.6177 10.1343 17.4198 11.3023 16.8209C11.3997 16.7674 11.497 16.7247 11.5944 16.6819C12.6975 16.1686 13.898 15.9226 15.185 15.9226H16.0503C17.2075 15.9333 18.2999 16.1472 19.3273 16.5857C20.3548 17.0241 21.2416 17.623 22.0095 18.3822C22.7666 19.1415 23.3723 20.0291 23.8049 21.045C23.8914 21.2482 23.9347 21.4728 23.9996 21.6759V21.5583C24.0104 20.1039 23.7292 18.6923 23.1668 17.3877C22.6152 16.0937 21.8473 14.9495 20.8739 13.9763C19.9005 13.0032 18.7433 12.2332 17.4455 11.6772C16.126 11.1104 14.7092 10.8216 13.2383 10.8109H12.3731C11.1293 10.8003 9.93961 11.0034 8.81481 11.3884L8.77155 15.3238Z" fill="#EE5F40"/>
<path d="M10.1016 40.7111C10.545 41.1603 11.075 41.5132 11.6806 41.7698C12.2863 42.0265 12.9352 42.1655 13.6274 42.1655L15.9203 42.1762C16.6124 42.1762 17.2614 42.0586 17.867 41.8019C18.4727 41.5453 19.0026 41.2031 19.4569 40.7539C19.9111 40.3155 20.268 39.7915 20.5276 39.1926C20.7872 38.5938 20.9278 37.9521 20.9278 37.2677L20.9926 24.0928C20.9926 23.4084 20.8737 22.7668 20.6141 22.1679C20.3545 21.5691 20.0085 21.0451 19.5542 20.5959C19.1108 20.1468 18.5808 19.7939 17.9752 19.5372C17.3695 19.2806 16.7206 19.1416 16.0284 19.1416L14.4277 19.1309C14.6332 19.2485 14.8495 19.3554 15.0118 19.5265C15.2497 19.7618 15.4227 20.0291 15.5633 20.3607C15.6931 20.6708 15.758 20.9916 15.758 21.3552L15.6931 34.5301C15.6931 34.8937 15.6282 35.2145 15.4876 35.5139C15.347 35.8347 15.1632 36.1128 14.9252 36.3373C14.6873 36.5726 14.4169 36.7437 14.0816 36.8827C13.768 37.0111 13.4435 37.0752 13.0758 37.0752L10.783 37.0645C10.4152 37.0645 10.0908 37.0004 9.78795 36.8613C9.46349 36.7223 9.18229 36.5405 8.95517 36.3053C8.8362 36.1769 8.7605 36.0165 8.66316 35.8668L8.65234 37.2142C8.65234 37.8987 8.77131 38.5403 9.03088 39.1391C9.30126 39.738 9.65817 40.262 10.1016 40.7111Z" fill="#EE5F40"/>
<path d="M10.329 44.7113C9.30149 44.2728 8.41464 43.674 7.64675 42.9147C6.88968 42.1554 6.28401 41.2678 5.8514 40.2519C5.41879 39.236 5.20248 38.1559 5.2133 37.0117L5.40797 0.0107744L2.55272 8.03074e-05C1.23325 -0.0106136 0.16253 1.04808 0.151715 2.35274L0.000300499 34.2526C-0.0105148 35.707 0.270681 37.1186 0.833079 38.4232C1.38466 39.7172 2.15255 40.8615 3.12594 41.8346C4.09932 42.8078 5.25656 43.5777 6.5544 44.1338C7.87387 44.7006 9.29068 44.9893 10.7616 45H11.2915C10.9671 44.9144 10.6426 44.8396 10.329 44.7113Z" fill="#EE5F40"/>
</svg>
