<svg width="177" height="45" viewBox="0 0 177 45" fill="none" xmlns="http://www.w3.org/2000/svg">
<g clip-path="url(#clip0_31903_20)">
<path d="M9.45632 41.0001L0.52832 15.0321H6.28832L13.1043 35.7201H11.0883L18.0483 15.0321H22.9923L29.9043 35.7201H27.8883L34.7523 15.0321H40.5123L31.5363 41.0001H26.6403L19.6323 19.8321H21.4083L14.4003 41.0001H9.45632ZM54.5141 41.5761C51.9221 41.5761 49.6181 40.9841 47.6021 39.8001C45.6181 38.5841 44.0661 36.9521 42.9461 34.9041C41.8261 32.8241 41.2661 30.5041 41.2661 27.9441C41.2661 25.3201 41.8261 23.0001 42.9461 20.9841C44.0981 18.9681 45.6341 17.3841 47.5541 16.2321C49.4741 15.0481 51.6501 14.4561 54.0821 14.4561C56.0341 14.4561 57.7781 14.7921 59.3141 15.4641C60.8501 16.1361 62.1461 17.0641 63.2021 18.2481C64.2581 19.4001 65.0581 20.7281 65.6021 22.2321C66.1781 23.7361 66.4661 25.3361 66.4661 27.0321C66.4661 27.4481 66.4501 27.8801 66.4181 28.3281C66.3861 28.7761 66.3221 29.1921 66.2261 29.5761H45.5381V25.2561H63.1541L60.5621 27.2241C60.8821 25.6561 60.7701 24.2641 60.2261 23.0481C59.7141 21.8001 58.9141 20.8241 57.8261 20.1201C56.7701 19.3841 55.5221 19.0161 54.0821 19.0161C52.6421 19.0161 51.3621 19.3841 50.2421 20.1201C49.1221 20.8241 48.2581 21.8481 47.6501 23.1921C47.0421 24.5041 46.8021 26.1041 46.9301 27.9921C46.7701 29.7521 47.0101 31.2881 47.6501 32.6001C48.3221 33.9121 49.2501 34.9361 50.4341 35.6721C51.6501 36.4081 53.0261 36.7761 54.5621 36.7761C56.1301 36.7761 57.4581 36.4241 58.5461 35.7201C59.6661 35.0161 60.5461 34.1041 61.1861 32.9841L65.6021 35.1441C65.0901 36.3601 64.2901 37.4641 63.2021 38.4561C62.1461 39.4161 60.8661 40.1841 59.3621 40.7601C57.8901 41.3041 56.2741 41.5761 54.5141 41.5761ZM105.898 41.5761C104.138 41.5761 102.586 41.2721 101.242 40.6641C99.9301 40.0241 98.9061 39.1601 98.1701 38.0721C97.4341 36.9521 97.0661 35.6401 97.0661 34.1361C97.0661 32.7281 97.3701 31.4641 97.9781 30.3441C98.6181 29.2241 99.5941 28.2801 100.906 27.5121C102.218 26.7441 103.866 26.2001 105.85 25.8801L114.874 24.3921V28.6641L106.906 30.0561C105.466 30.3121 104.41 30.7761 103.738 31.4481C103.066 32.0881 102.73 32.9201 102.73 33.9441C102.73 34.9361 103.098 35.7521 103.834 36.3921C104.602 37.0001 105.578 37.3041 106.762 37.3041C108.234 37.3041 109.514 36.9841 110.602 36.3441C111.722 35.7041 112.586 34.8561 113.194 33.8001C113.802 32.7121 114.106 31.5121 114.106 30.2001V23.5281C114.106 22.2481 113.626 21.2081 112.666 20.4081C111.738 19.5761 110.49 19.1601 108.922 19.1601C107.482 19.1601 106.218 19.5441 105.13 20.3121C104.074 21.0481 103.29 22.0081 102.778 23.1921L98.2661 20.9361C98.7461 19.6561 99.5301 18.5361 100.618 17.5761C101.706 16.5841 102.97 15.8161 104.41 15.2721C105.882 14.7281 107.434 14.4561 109.066 14.4561C111.114 14.4561 112.922 14.8401 114.49 15.6081C116.09 16.3761 117.322 17.4481 118.186 18.8241C119.082 20.1681 119.53 21.7361 119.53 23.5281V41.0001H114.346V36.2961L115.45 36.4401C114.842 37.4961 114.058 38.4081 113.098 39.1761C112.17 39.9441 111.098 40.5361 109.882 40.9521C108.698 41.3681 107.37 41.5761 105.898 41.5761ZM124.432 41.0001V15.0321H129.616V20.1201L128.992 19.4481C129.632 17.8161 130.656 16.5841 132.064 15.7521C133.472 14.8881 135.104 14.4561 136.96 14.4561C138.88 14.4561 140.576 14.8721 142.048 15.7041C143.52 16.5361 144.672 17.6881 145.504 19.1601C146.336 20.6321 146.752 22.3281 146.752 24.2481V41.0001H141.376V25.6881C141.376 24.3761 141.136 23.2721 140.656 22.3761C140.176 21.4481 139.488 20.7441 138.592 20.2641C137.728 19.7521 136.736 19.4961 135.616 19.4961C134.496 19.4961 133.488 19.7521 132.592 20.2641C131.728 20.7441 131.056 21.4481 130.576 22.3761C130.096 23.3041 129.856 24.4081 129.856 25.6881V41.0001H124.432ZM163.117 41.5761C160.621 41.5761 158.381 40.9841 156.397 39.8001C154.445 38.5841 152.893 36.9521 151.741 34.9041C150.621 32.8561 150.061 30.5521 150.061 27.9921C150.061 25.4321 150.637 23.1281 151.789 21.0801C152.941 19.0321 154.493 17.4161 156.445 16.2321C158.397 15.0481 160.605 14.4561 163.069 14.4561C165.149 14.4561 166.989 14.8721 168.589 15.7041C170.189 16.5361 171.453 17.6881 172.381 19.1601L171.565 20.4081V4.66406H176.941V41.0001H171.805V35.7201L172.429 36.7281C171.533 38.2961 170.253 39.4961 168.589 40.3281C166.925 41.1601 165.101 41.5761 163.117 41.5761ZM163.645 36.5361C165.149 36.5361 166.493 36.1681 167.677 35.4321C168.893 34.6961 169.837 33.6881 170.509 32.4081C171.213 31.0961 171.565 29.6241 171.565 27.9921C171.565 26.3601 171.213 24.9041 170.509 23.6241C169.837 22.3441 168.893 21.3361 167.677 20.6001C166.493 19.8641 165.149 19.4961 163.645 19.4961C162.141 19.4961 160.781 19.8641 159.565 20.6001C158.349 21.3361 157.405 22.3441 156.733 23.6241C156.061 24.9041 155.725 26.3601 155.725 27.9921C155.725 29.6241 156.061 31.0961 156.733 32.4081C157.405 33.6881 158.333 34.6961 159.517 35.4321C160.733 36.1681 162.109 36.5361 163.645 36.5361Z" fill="#ED5F40"/>
<path d="M79.7715 15.3238C79.7607 16.6177 81.1343 17.4198 82.3023 16.8209C82.3997 16.7674 82.497 16.7247 82.5944 16.6819C83.6975 16.1686 84.898 15.9226 86.185 15.9226H87.0503C88.2075 15.9333 89.2999 16.1472 90.3273 16.5857C91.3548 17.0241 92.2416 17.623 93.0095 18.3822C93.7666 19.1415 94.3723 20.0291 94.8049 21.045C94.8914 21.2482 94.9348 21.4728 94.9997 21.6759V21.5583C95.0105 20.1039 94.7292 18.6923 94.1668 17.3877C93.6152 16.0937 92.8473 14.9495 91.8739 13.9763C90.9005 13.0032 89.7434 12.2332 88.4456 11.6772C87.1261 11.1104 85.7092 10.8216 84.2383 10.8109H83.3731C82.1293 10.8003 80.9396 11.0034 79.8148 11.3884L79.7715 15.3238Z" fill="#EE5F40"/>
<path d="M81.1016 40.7111C81.545 41.1603 82.075 41.5132 82.6806 41.7698C83.2863 42.0265 83.9352 42.1655 84.6274 42.1655L86.9203 42.1762C87.6124 42.1762 88.2614 42.0586 88.867 41.8019C89.4727 41.5453 90.0026 41.2031 90.4569 40.7539C90.9111 40.3155 91.268 39.7915 91.5276 39.1926C91.7872 38.5938 91.9278 37.9521 91.9278 37.2677L91.9926 24.0928C91.9926 23.4084 91.8737 22.7668 91.6141 22.1679C91.3545 21.5691 91.0085 21.0451 90.5542 20.5959C90.1108 20.1468 89.5808 19.7939 88.9752 19.5372C88.3695 19.2806 87.7206 19.1416 87.0284 19.1416L85.4277 19.1309C85.6332 19.2485 85.8495 19.3554 86.0118 19.5265C86.2497 19.7618 86.4227 20.0291 86.5633 20.3607C86.6931 20.6708 86.758 20.9916 86.758 21.3552L86.6931 34.5301C86.6931 34.8937 86.6282 35.2145 86.4876 35.5139C86.347 35.8347 86.1632 36.1128 85.9252 36.3373C85.6873 36.5726 85.4169 36.7437 85.0816 36.8827C84.768 37.0111 84.4435 37.0752 84.0758 37.0752L81.783 37.0645C81.4152 37.0645 81.0908 37.0004 80.788 36.8613C80.4635 36.7223 80.1823 36.5405 79.9552 36.3053C79.8362 36.1769 79.7605 36.0165 79.6632 35.8668L79.6523 37.2142C79.6523 37.8987 79.7713 38.5403 80.0309 39.1391C80.3013 39.738 80.6582 40.262 81.1016 40.7111Z" fill="#EE5F40"/>
<path d="M81.329 44.7113C80.3015 44.2728 79.4146 43.674 78.6468 42.9147C77.8897 42.1554 77.284 41.2678 76.8514 40.2519C76.4188 39.236 76.2025 38.1559 76.2133 37.0117L76.408 0.0107808L73.5527 8.05474e-05C72.2333 -0.0106295 71.1625 1.04808 71.1517 2.35268L71.0003 34.2526C70.9895 35.707 71.2707 37.1186 71.8331 38.4232C72.3847 39.7172 73.1526 40.8615 74.1259 41.8346C75.0993 42.8078 76.2566 43.5777 77.5544 44.1338C78.8739 44.7006 80.2907 44.9893 81.7616 45H82.2915C81.9671 44.9144 81.6426 44.8396 81.329 44.7113Z" fill="#EE5F40"/>
</g>
<defs>
<clipPath id="clip0_31903_20">
<rect width="177" height="45" fill="white"/>
</clipPath>
</defs>
</svg>
