<svg width="181" height="62" viewBox="0 0 181 62" fill="none" xmlns="http://www.w3.org/2000/svg">
<path d="M9.456 51L0.528 25.032H6.288L13.104 45.72H11.088L18.048 25.032H22.992L29.904 45.72H27.888L34.752 25.032H40.512L31.536 51H26.64L19.632 29.832H21.408L14.4 51H9.456ZM54.5138 51.576C51.9218 51.576 49.6178 50.984 47.6018 49.8C45.6178 48.584 44.0658 46.952 42.9458 44.904C41.8258 42.824 41.2658 40.504 41.2658 37.944C41.2658 35.32 41.8258 33 42.9458 30.984C44.0978 28.968 45.6338 27.384 47.5538 26.232C49.4738 25.048 51.6498 24.456 54.0818 24.456C56.0338 24.456 57.7778 24.792 59.3138 25.464C60.8498 26.136 62.1458 27.064 63.2018 28.248C64.2578 29.4 65.0578 30.728 65.6018 32.232C66.1778 33.736 66.4658 35.336 66.4658 37.032C66.4658 37.448 66.4498 37.88 66.4178 38.328C66.3858 38.776 66.3218 39.192 66.2258 39.576H45.5378V35.256H63.1538L60.5618 37.224C60.8818 35.656 60.7698 34.264 60.2258 33.048C59.7138 31.8 58.9138 30.824 57.8258 30.12C56.7698 29.384 55.5218 29.016 54.0818 29.016C52.6418 29.016 51.3618 29.384 50.2418 30.12C49.1218 30.824 48.2578 31.848 47.6498 33.192C47.0418 34.504 46.8018 36.104 46.9298 37.992C46.7698 39.752 47.0098 41.288 47.6498 42.6C48.3218 43.912 49.2498 44.936 50.4338 45.672C51.6498 46.408 53.0258 46.776 54.5618 46.776C56.1298 46.776 57.4578 46.424 58.5458 45.72C59.6658 45.016 60.5458 44.104 61.1858 42.984L65.6018 45.144C65.0898 46.36 64.2898 47.464 63.2018 48.456C62.1458 49.416 60.8658 50.184 59.3618 50.76C57.8898 51.304 56.2738 51.576 54.5138 51.576ZM105.898 51.576C104.138 51.576 102.586 51.272 101.242 50.664C99.9298 50.024 98.9058 49.16 98.1698 48.072C97.4338 46.952 97.0658 45.64 97.0658 44.136C97.0658 42.728 97.3698 41.464 97.9778 40.344C98.6178 39.224 99.5938 38.28 100.906 37.512C102.218 36.744 103.866 36.2 105.85 35.88L114.874 34.392V38.664L106.906 40.056C105.466 40.312 104.41 40.776 103.738 41.448C103.066 42.088 102.73 42.92 102.73 43.944C102.73 44.936 103.098 45.752 103.834 46.392C104.602 47 105.578 47.304 106.762 47.304C108.234 47.304 109.514 46.984 110.602 46.344C111.722 45.704 112.586 44.856 113.194 43.8C113.802 42.712 114.106 41.512 114.106 40.2V33.528C114.106 32.248 113.626 31.208 112.666 30.408C111.738 29.576 110.49 29.16 108.922 29.16C107.482 29.16 106.218 29.544 105.13 30.312C104.074 31.048 103.29 32.008 102.778 33.192L98.2658 30.936C98.7458 29.656 99.5298 28.536 100.618 27.576C101.706 26.584 102.97 25.816 104.41 25.272C105.882 24.728 107.434 24.456 109.066 24.456C111.114 24.456 112.922 24.84 114.49 25.608C116.09 26.376 117.322 27.448 118.186 28.824C119.082 30.168 119.53 31.736 119.53 33.528V51H114.346V46.296L115.45 46.44C114.842 47.496 114.058 48.408 113.098 49.176C112.17 49.944 111.098 50.536 109.882 50.952C108.698 51.368 107.37 51.576 105.898 51.576ZM124.432 51V25.032H129.616V30.12L128.992 29.448C129.632 27.816 130.656 26.584 132.064 25.752C133.472 24.888 135.104 24.456 136.96 24.456C138.88 24.456 140.576 24.872 142.048 25.704C143.52 26.536 144.672 27.688 145.504 29.16C146.336 30.632 146.752 32.328 146.752 34.248V51H141.376V35.688C141.376 34.376 141.136 33.272 140.656 32.376C140.176 31.448 139.488 30.744 138.592 30.264C137.728 29.752 136.736 29.496 135.616 29.496C134.496 29.496 133.488 29.752 132.592 30.264C131.728 30.744 131.056 31.448 130.576 32.376C130.096 33.304 129.856 34.408 129.856 35.688V51H124.432ZM163.117 51.576C160.621 51.576 158.381 50.984 156.397 49.8C154.445 48.584 152.893 46.952 151.741 44.904C150.621 42.856 150.061 40.552 150.061 37.992C150.061 35.432 150.637 33.128 151.789 31.08C152.941 29.032 154.493 27.416 156.445 26.232C158.397 25.048 160.605 24.456 163.069 24.456C165.149 24.456 166.989 24.872 168.589 25.704C170.189 26.536 171.453 27.688 172.381 29.16L171.565 30.408V14.664H176.941V51H171.805V45.72L172.429 46.728C171.533 48.296 170.253 49.496 168.589 50.328C166.925 51.16 165.101 51.576 163.117 51.576ZM163.645 46.536C165.149 46.536 166.493 46.168 167.677 45.432C168.893 44.696 169.837 43.688 170.509 42.408C171.213 41.096 171.565 39.624 171.565 37.992C171.565 36.36 171.213 34.904 170.509 33.624C169.837 32.344 168.893 31.336 167.677 30.6C166.493 29.864 165.149 29.496 163.645 29.496C162.141 29.496 160.781 29.864 159.565 30.6C158.349 31.336 157.405 32.344 156.733 33.624C156.061 34.904 155.725 36.36 155.725 37.992C155.725 39.624 156.061 41.096 156.733 42.408C157.405 43.688 158.333 44.696 159.517 45.432C160.733 46.168 162.109 46.536 163.645 46.536Z" fill="#ED5F40"/>
<path d="M79.7715 25.3238C79.7607 26.6177 81.1343 27.4198 82.3023 26.8209C82.3997 26.7674 82.497 26.7247 82.5944 26.6819C83.6975 26.1686 84.898 25.9226 86.185 25.9226H87.0503C88.2075 25.9333 89.2999 26.1472 90.3273 26.5857C91.3548 27.0241 92.2416 27.623 93.0095 28.3822C93.7666 29.1415 94.3723 30.0291 94.8049 31.045C94.8914 31.2482 94.9347 31.4728 94.9996 31.6759V31.5583C95.0104 30.1039 94.7292 28.6923 94.1668 27.3877C93.6152 26.0937 92.8473 24.9495 91.8739 23.9763C90.9005 23.0032 89.7433 22.2332 88.4455 21.6772C87.126 21.1104 85.7092 20.8216 84.2383 20.8109H83.3731C82.1293 20.8003 80.9396 21.0034 79.8148 21.3884L79.7715 25.3238Z" fill="#EE5F40"/>
<path d="M81.1016 50.7111C81.545 51.1603 82.075 51.5132 82.6806 51.7698C83.2863 52.0265 83.9352 52.1655 84.6274 52.1655L86.9203 52.1762C87.6124 52.1762 88.2614 52.0586 88.867 51.8019C89.4727 51.5453 90.0026 51.2031 90.4569 50.7539C90.9111 50.3155 91.268 49.7915 91.5276 49.1926C91.7872 48.5938 91.9278 47.9521 91.9278 47.2677L91.9926 34.0928C91.9926 33.4084 91.8737 32.7668 91.6141 32.1679C91.3545 31.5691 91.0085 31.0451 90.5542 30.5959C90.1108 30.1468 89.5808 29.7939 88.9752 29.5372C88.3695 29.2806 87.7206 29.1416 87.0284 29.1416L85.4277 29.1309C85.6332 29.2485 85.8495 29.3554 86.0118 29.5265C86.2497 29.7618 86.4227 30.0291 86.5633 30.3607C86.6931 30.6708 86.758 30.9916 86.758 31.3552L86.6931 44.5301C86.6931 44.8937 86.6282 45.2145 86.4876 45.5139C86.347 45.8347 86.1632 46.1128 85.9252 46.3373C85.6873 46.5726 85.4169 46.7437 85.0816 46.8827C84.768 47.0111 84.4435 47.0752 84.0758 47.0752L81.783 47.0645C81.4152 47.0645 81.0908 47.0004 80.788 46.8613C80.4635 46.7223 80.1823 46.5405 79.9552 46.3053C79.8362 46.1769 79.7605 46.0165 79.6632 45.8668L79.6523 47.2142C79.6523 47.8987 79.7713 48.5403 80.0309 49.1391C80.3013 49.738 80.6582 50.262 81.1016 50.7111Z" fill="#EE5F40"/>
<path d="M81.329 54.7113C80.3015 54.2728 79.4146 53.674 78.6468 52.9147C77.8897 52.1554 77.284 51.2678 76.8514 50.2519C76.4188 49.236 76.2025 48.1559 76.2133 47.0117L76.408 10.0108L73.5527 10.0001C72.2333 9.98939 71.1625 11.0481 71.1517 12.3527L71.0003 44.2526C70.9895 45.707 71.2707 47.1186 71.8331 48.4232C72.3847 49.7172 73.1526 50.8615 74.1259 51.8346C75.0993 52.8078 76.2566 53.5777 77.5544 54.1338C78.8739 54.7006 80.2907 54.9893 81.7616 55H82.2915C81.9671 54.9144 81.6426 54.8396 81.329 54.7113Z" fill="#EE5F40"/>
</svg>
